# This file uses centimeters as units for non-parametric coordinates.

mtllib pillar.mtl
g default
v 0.404509 0.000000 -0.293893
v 0.154509 0.000000 -0.475529
v -0.293893 0.000000 -0.404509
v -0.475528 0.000000 -0.154509
v -0.404509 0.000000 0.293893
v 0.000000 0.000000 0.500000
v 0.293893 0.000000 0.404509
v 0.475528 0.000000 0.154509
v 0.154509 4.000000 -0.475529
v -0.154509 4.000000 -0.475528
v -0.475528 4.000000 -0.154509
v -0.475528 4.000000 0.154509
v -0.154509 4.000000 0.475528
v 0.293893 4.000000 0.404509
v 0.475528 4.000000 0.154509
v 0.475529 4.000000 -0.154509
v 0.475529 0.000000 -0.154509
vt 0.375000 0.312500
vt 0.387500 0.312500
vt 0.375000 0.688440
vt 0.412500 0.688440
vt 0.412500 0.312500
vt 0.437500 0.688440
vt 0.450000 0.312500
vt 0.475000 0.688440
vt 0.475000 0.312500
vt 0.500000 0.688440
vt 0.512500 0.312500
vt 0.537500 0.688440
vt 0.550000 0.312500
vt 0.575000 0.688440
vt 0.575000 0.312500
vt 0.600000 0.688440
vt 0.600000 0.312500
vt 0.625000 0.688440
vt 0.625000 0.312500
vt 0.548284 0.007647
vt 0.626409 0.064408
vt 0.648603 0.107966
vt 0.408159 0.029841
vt 0.351397 0.107966
vt 0.373591 0.248091
vt 0.500000 0.312500
vt 0.591841 0.282659
vt 0.648603 0.204534
vt 0.648603 0.892034
vt 0.548284 0.992353
vt 0.591842 0.717341
vt 0.451716 0.992353
vt 0.351397 0.892034
vt 0.351397 0.795466
vt 0.451716 0.695147
vt 0.648603 0.795466
vn 0.987688 0.000000 -0.156434
vn 0.713253 0.003041 -0.700900
vn 0.899586 0.007288 -0.436684
vn 0.899586 0.007288 -0.436684
vn 0.713253 0.003041 -0.700900
vn 0.431434 0.006508 -0.902121
vn 0.713253 0.003041 -0.700900
vn 0.181216 -0.006508 -0.983422
vn 0.431434 0.006508 -0.902121
vn 0.431434 0.006508 -0.902121
vn 0.181216 -0.006508 -0.983422
vn -0.422228 0.004648 -0.906478
vn 0.181216 -0.006508 -0.983422
vn -0.485176 -0.004648 -0.874404
vn -0.422228 0.004648 -0.906478
vn -0.422228 0.004648 -0.906478
vn -0.485176 -0.004648 -0.874404
vn -0.902121 0.006508 -0.431434
vn -0.485176 -0.004648 -0.874404
vn -0.983422 -0.006508 -0.181216
vn -0.902121 0.006508 -0.431434
vn -0.902121 0.006508 -0.431434
vn -0.983422 -0.006508 -0.181216
vn -0.906478 0.004648 0.422228
vn -0.983422 -0.006508 -0.181216
vn -0.808565 -0.009587 0.588329
vn -0.906478 0.004648 0.422228
vn -0.906478 0.004648 0.422228
vn -0.808565 -0.009587 0.588329
vn -0.309673 0.009587 0.950795
vn -0.808565 -0.009587 0.588329
vn -0.121446 -0.004648 0.992587
vn -0.309673 0.009587 0.950795
vn -0.309673 0.009587 0.950795
vn -0.121446 -0.004648 0.992587
vn 0.476241 0.006508 0.879291
vn -0.121446 -0.004648 0.992587
vn 0.587785 0.000000 0.809017
vn 0.476241 0.006508 0.879291
vn 0.476241 0.006508 0.879291
vn 0.587785 0.000000 0.809017
vn 0.951056 0.000000 0.309017
vn 0.587785 0.000000 0.809017
vn 0.951056 0.000000 0.309017
vn 0.951056 0.000000 0.309017
vn 0.951056 0.000000 0.309017
vn 0.951056 0.000000 0.309017
vn 0.899586 0.007288 -0.436684
vn 0.951056 0.000000 0.309017
vn 0.987688 0.000000 -0.156434
vn 0.899586 0.007288 -0.436684
vn 0.000000 -1.000000 0.000000
vn 0.000000 -1.000000 -0.000005
vn 0.000000 -1.000000 0.000000
vn 0.000000 -1.000000 0.000000
vn 0.000000 -1.000000 0.000000
vn 0.000000 -1.000000 0.000000
vn 0.000000 -1.000000 0.000000
vn 0.000000 -1.000000 0.000000
vn 0.000000 -1.000000 0.000000
vn 0.000000 -1.000000 0.000000
vn 0.000000 -1.000000 0.000000
vn 0.000000 -1.000000 0.000000
vn 0.000000 -1.000000 0.000000
vn 0.000000 -1.000000 0.000000
vn 0.000000 -1.000000 0.000000
vn 0.000000 -1.000000 0.000001
vn 0.000000 -1.000000 0.000000
vn 0.000000 -1.000000 0.000000
vn 0.000000 -1.000000 0.000000
vn 0.000000 -1.000000 0.000001
vn 0.000000 -1.000000 0.000000
vn 0.000000 1.000000 0.000000
vn 0.000000 1.000000 0.000000
vn 0.000000 1.000000 0.000000
vn 0.000000 1.000000 0.000000
vn 0.000000 1.000000 0.000000
vn 0.000000 1.000000 0.000000
vn 0.000000 1.000000 0.000000
vn 0.000000 1.000000 0.000000
vn 0.000000 1.000000 0.000000
vn 0.000000 1.000000 0.000000
vn 0.000000 1.000000 0.000000
vn 0.000000 1.000000 0.000000
vn 0.000000 1.000000 0.000000
vn 0.000000 1.000000 0.000000
vn 0.000000 1.000000 0.000000
vn 0.000000 1.000000 0.000000
vn 0.000000 1.000000 0.000000
vn 0.000000 1.000000 0.000000
s off
g pillar:pCylinder1
usemtl lambert2SG
f 17/1/1 1/2/2 16/3/3
f 16/3/4 1/2/5 9/4/6
f 1/2/7 2/5/8 9/4/9
f 9/4/10 2/5/11 10/6/12
f 2/5/13 3/7/14 10/6/15
f 10/6/16 3/7/17 11/8/18
f 3/7/19 4/9/20 11/8/21
f 11/8/22 4/9/23 12/10/24
f 4/9/25 5/11/26 12/10/27
f 12/10/28 5/11/29 13/12/30
f 5/11/31 6/13/32 13/12/33
f 13/12/34 6/13/35 14/14/36
f 6/13/37 7/15/38 14/14/39
f 14/14/40 7/15/41 15/16/42
f 7/15/43 8/17/44 15/16/45
f 15/16/46 8/17/47 16/18/48
f 8/17/49 17/19/50 16/18/51
f 2/20/52 1/21/53 17/22/54
f 3/23/55 2/20/56 17/22/57
f 4/24/58 3/23/59 17/22/60
f 5/25/61 4/24/62 17/22/63
f 6/26/64 5/25/65 17/22/66
f 7/27/67 6/26/68 17/22/69
f 8/28/70 7/27/71 17/22/72
f 16/29/73 9/30/74 14/31/75
f 9/30/76 10/32/77 14/31/78
f 10/32/79 11/33/80 14/31/81
f 11/33/82 12/34/83 14/31/84
f 12/34/85 13/35/86 14/31/87
f 15/36/88 16/29/89 14/31/90
