# This file uses centimeters as units for non-parametric coordinates.

mtllib BlueSuke_leg_r.mtl
g default
v 0.109093 -0.582988 -0.050187
v 0.219683 -0.006092 0.083986
v -0.185178 -0.381857 0.153903
v -0.130955 -0.363281 0.251038
v -0.207414 -0.282529 0.119594
v -0.120677 -0.548671 -0.040445
v 0.215031 -0.226295 0.112668
v 0.190877 -0.483044 0.105839
v -0.061329 -0.599402 0.051459
v 0.100516 -0.602964 0.044908
v 0.072891 -0.502177 0.242013
v 0.057068 -0.604033 0.047729
v 0.097910 -0.000430 0.255295
v -0.020188 -0.000150 0.258300
v 0.184237 -0.000635 0.163395
v 0.179204 -0.000623 -0.097031
v 0.213404 -0.000705 -0.016559
v -0.162160 0.000187 0.234293
v -0.226380 0.000340 0.062407
v -0.230681 0.000350 0.075752
v 0.221589 -0.000724 0.031890
v -0.223917 0.000334 0.087274
v 0.219859 -0.000720 0.081489
v -0.146423 0.000150 -0.136447
v -0.212392 0.000307 -0.017701
v 0.218552 -0.000717 0.086091
v -0.045296 -0.000090 -0.143383
v 0.220203 -0.000721 0.083884
v 0.015798 -0.000235 0.061788
vt 0.967204 0.628864
vt 0.945999 0.602405
vt 0.940341 0.613726
vt 0.903174 0.596247
vt 0.864456 0.655480
vt 0.897767 0.616838
vt 0.667826 0.660721
vt 0.616828 0.646682
vt 0.634083 0.691190
vt 0.601462 0.700683
vt 0.627349 0.721620
vt 0.866492 0.637126
vt 0.668138 0.644616
vt 0.670652 0.735537
vt 0.686655 0.643053
vt 0.974232 0.673853
vt 0.973469 0.711377
vt 0.705858 0.747769
vt 0.602735 0.684239
vt 0.936398 0.597031
vt 0.715003 0.717276
vt 0.721404 0.696169
vt 0.709641 0.737442
vt 0.948012 0.713881
vt 0.960541 0.712862
vt 0.728365 0.672877
vt 0.858185 0.703544
vt 0.856474 0.703135
vt 0.735093 0.650256
vt 0.967658 0.713045
vt 0.734606 0.652166
vt 0.973248 0.712319
vt 0.888092 0.710534
vt 0.869203 0.707101
vt 0.706819 0.747695
vt 0.906695 0.711710
vt 0.973539 0.712291
vt 0.706707 0.748068
vt 0.837257 0.704448
vn 0.966013 -0.202208 -0.161034
vn 0.578159 -0.785437 0.220956
vn 0.360338 -0.222558 -0.905883
vn -0.508686 -0.781598 0.361031
vn -0.993892 -0.109746 0.011603
vn -0.353458 -0.271732 -0.895114
vn -0.226670 -0.107653 0.968004
vn -0.508686 -0.781598 0.361031
vn 0.230446 -0.246829 0.941260
vn 0.230446 -0.246829 0.941260
vn 0.578159 -0.785437 0.220956
vn 0.966013 -0.202208 -0.161034
vn -0.880423 -0.443088 0.168902
vn -0.993892 -0.109746 0.011603
vn -0.508686 -0.781598 0.361031
vn -0.226670 -0.107653 0.968004
vn -0.880423 -0.443088 0.168902
vn -0.508686 -0.781598 0.361031
vn -0.226670 -0.107653 0.968004
vn 0.230446 -0.246829 0.941260
vn 0.025356 -0.027718 0.999294
vn 0.025356 -0.027718 0.999294
vn 0.886642 -0.067753 0.457466
vn 0.230446 -0.246829 0.941260
vn 0.966013 -0.202208 -0.161034
vn -0.993892 -0.109746 0.011603
vn -0.880423 -0.443088 0.168902
vn -0.226670 -0.107653 0.968004
vn 0.886642 -0.067753 0.457466
vn 0.727724 -0.054387 0.683710
vn 0.727724 -0.054387 0.683710
vn 0.230446 -0.246829 0.941260
vn 0.360338 -0.222558 -0.905883
vn 0.911109 -0.140846 -0.387354
vn 0.911109 -0.140846 -0.387354
vn 0.966013 -0.202208 -0.161034
vn 0.961836 -0.008541 0.273492
vn 0.913498 0.033514 0.405460
vn 0.913498 0.033514 0.405460
vn 0.886642 -0.067753 0.457466
vn -0.353458 -0.271732 -0.895114
vn -0.067782 -0.174997 -0.982233
vn -0.067782 -0.174997 -0.982233
vn 0.360338 -0.222558 -0.905883
vn 0.961836 -0.008541 0.273492
vn 0.798781 -0.066022 0.597988
vn 0.798781 -0.066022 0.597988
vn 0.230446 -0.246829 0.941260
vn -0.508686 -0.781598 0.361031
vn -0.061694 -0.990109 0.126007
vn -0.353458 -0.271732 -0.895114
vn 0.360338 -0.222558 -0.905883
vn -0.061694 -0.990109 0.126007
vn -0.353458 -0.271732 -0.895114
vn -0.061694 -0.990109 0.126007
vn -0.508686 -0.781598 0.361031
vn -0.061694 -0.990109 0.126007
vn 0.578159 -0.785437 0.220956
vn 0.230446 -0.246829 0.941260
vn 0.360338 -0.222558 -0.905883
vn 0.578159 -0.785437 0.220956
vn -0.061694 -0.990109 0.126007
vn -0.166576 0.031103 0.985538
vn -0.166576 0.031103 0.985538
vn -0.226670 -0.107653 0.968004
vn -0.944381 -0.124828 -0.304242
vn -0.944381 -0.124828 -0.304242
vn -0.353458 -0.271732 -0.895114
vn -0.993892 -0.109746 0.011603
vn 0.982198 -0.087987 -0.165967
vn 0.982198 -0.087987 -0.165967
vn 0.886642 -0.067753 0.457466
vn 0.966013 -0.202208 -0.161034
vn -0.862356 0.007531 0.506247
vn -0.862356 0.007531 0.506247
vn -0.993892 -0.109746 0.011603
vn -0.226670 -0.107653 0.968004
vn 0.999255 -0.016572 0.034846
vn 0.999255 -0.016572 0.034846
vn 0.961836 -0.008541 0.273492
vn 0.886642 -0.067753 0.457466
vn -0.867380 -0.124952 -0.481704
vn -0.867380 -0.124952 -0.481704
vn -0.353458 -0.271732 -0.895114
vn -0.973117 -0.155536 -0.169861
vn -0.973117 -0.155536 -0.169861
vn -0.353458 -0.271732 -0.895114
vn 0.985086 -0.098052 -0.141393
vn 0.985086 -0.098052 -0.141393
vn 0.961836 -0.008541 0.273492
vn -0.920255 -0.061200 0.386504
vn -0.920255 -0.061200 0.386504
vn -0.226670 -0.107653 0.968004
vn 0.200902 -0.102552 -0.974229
vn 0.200902 -0.102552 -0.974229
vn 0.360338 -0.222558 -0.905883
vn 0.002375 0.999997 0.000001
vn 0.002375 0.999997 -0.000000
vn 0.002375 0.999997 -0.000000
vn 0.002375 0.999997 -0.000000
vn 0.002376 0.999997 0.000000
vn 0.002375 0.999997 0.000000
vn 0.002375 0.999997 0.000000
vn 0.002376 0.999997 -0.000031
vn 0.002375 0.999997 0.000004
vn 0.002375 0.999997 -0.000000
vn 0.002375 0.999997 0.000031
vn 0.002375 0.999997 0.000000
vn 0.002375 0.999997 0.000001
vn 0.002375 0.999997 0.000000
vn 0.002375 0.999997 0.000000
vn 0.002375 0.999997 -0.000001
vn 0.002375 0.999997 -0.000000
vn 0.002375 0.999997 -0.000000
vn 0.002375 0.999997 -0.000001
vn 0.002375 0.999997 0.000005
s off
g ENEMY_LEG_R
usemtl BlueSuke_leg_r:Low
f 8/1/1 10/2/2 1/3/3
f 9/4/4 5/5/5 6/6/6
f 4/7/7 9/8/8 11/9/9
f 11/9/10 10/10/11 8/11/12
f 3/12/13 5/5/14 9/4/15
f 4/7/16 3/13/17 9/8/18
f 4/7/19 11/9/20 13/21/21 14/22/22
f 7/14/23 11/9/24 8/11/25
f 5/15/26 3/13/27 4/7/28
f 7/14/29 15/23/30 13/21/31 11/9/32
f 1/3/33 16/24/34 17/25/35 8/1/36
f 2/18/37 26/35/38 15/23/39 7/14/40
f 6/6/41 24/33/42 27/36/43 1/3/44
f 2/18/45 28/38/46 26/35/47
f 11/9/48 9/8/49 12/19/50
f 6/6/51 1/3/52 12/20/53
f 6/6/54 12/20/55 9/4/56
f 12/19/57 10/10/58 11/9/59
f 1/3/60 10/2/61 12/20/62
f 14/22/63 18/26/64 4/7/65
f 20/28/66 19/27/67 6/6/68 5/5/69
f 17/25/70 21/30/71 7/16/72 8/1/73
f 22/31/74 20/29/75 5/15/76 4/7/77
f 21/30/78 23/32/79 2/17/80 7/16/81
f 25/34/82 24/33/83 6/6/84
f 19/27/85 25/34/86 6/6/87
f 23/32/88 28/37/89 2/17/90
f 18/26/91 22/31/92 4/7/93
f 27/36/94 16/24/95 1/3/96
s 1
f 22/31/97 18/26/98 29/39/99
f 18/26/98 14/22/100 29/39/99
f 14/22/100 13/21/101 29/39/99
f 13/21/101 15/23/102 29/39/99
f 15/23/102 26/35/103 29/39/99
s 2
f 26/35/104 28/37/105 29/39/106
f 28/37/105 23/32/107 29/39/106
s 1
f 23/32/108 21/30/109 29/39/99
f 21/30/109 17/25/110 29/39/99
f 17/25/110 16/24/111 29/39/99
f 16/24/111 27/36/112 29/39/99
f 27/36/112 24/33/113 29/39/99
f 24/33/113 25/34/114 29/39/99
f 25/34/114 19/27/115 29/39/99
f 19/27/115 20/29/116 29/39/99
f 20/29/116 22/31/97 29/39/99
