# This file uses centimeters as units for non-parametric coordinates.

mtllib BlueSuke_body.mtl
g default
v 0.299670 -0.232912 0.643097
v 0.388300 0.136989 -0.379460
v 0.595653 -0.411864 0.161697
v -0.365229 -0.577111 -0.366135
v -0.393872 -0.610008 0.433947
v 0.232856 0.751602 0.008593
v -0.218158 -0.823395 0.108021
v -0.181848 -0.767405 0.409659
v -0.223258 0.192321 0.616158
v 0.051061 0.269450 -0.552402
v -0.190848 -0.292914 -0.542429
v 0.595213 -0.283793 -0.107814
v -0.388315 0.136986 -0.379444
v -0.595213 -0.283793 -0.107814
v -0.506451 -0.665694 0.066903
v -0.525396 -0.150461 0.353256
v -0.144875 0.807794 0.001658
v 0.438457 -0.708428 0.197689
v -0.210432 -0.820095 0.188810
v -0.352287 0.508365 0.261352
v 0.102537 -0.150525 0.741230
v -0.299670 -0.232912 0.643097
v 0.052614 -0.483180 0.704546
v 0.087145 0.611155 0.442359
v -0.046721 0.208342 0.686727
v 0.193165 -0.444624 -0.514987
v -0.165048 0.597964 -0.423463
v 0.352287 0.508365 0.261352
v 0.374350 0.560314 0.092329
v 0.501218 -0.238901 0.415272
v 0.587240 -0.137714 0.158478
v 0.495898 -0.667981 0.135765
v 0.365229 -0.577111 -0.366135
v 0.541666 0.093380 -0.054166
v 0.375328 0.570766 0.034047
v -0.403583 0.510172 0.041506
v -0.606923 -0.227982 0.093681
v -0.495898 -0.667981 0.135765
v -0.606098 -0.407115 0.093463
v -0.550202 0.074719 0.077375
v 0.165048 0.597964 -0.423463
v -0.128676 0.730326 -0.337052
v 0.049229 0.837253 -0.001621
v -0.045605 0.712145 0.333214
v 0.480694 -0.664995 0.203467
v 0.206403 -0.588123 0.603417
v -0.071745 -0.842021 0.189382
v -0.402754 -0.748839 0.121241
v -0.225869 -0.792776 -0.131609
v 0.210432 -0.820095 0.188810
v 0.068733 -0.633542 -0.449035
v 0.354270 -0.732965 -0.176593
vt 0.416339 0.657490
vt 0.342882 0.654661
vt 0.259535 0.673878
vt 0.288474 0.606784
vt 0.216833 0.636143
vt 0.229099 0.697150
vt 0.372409 0.743176
vt 0.325548 0.683365
vt 0.274933 0.249125
vt 0.208074 0.263162
vt 0.242361 0.366447
vt 0.311735 0.347103
vt 0.321439 0.197413
vt 0.331746 0.789638
vt 0.337497 0.811719
vt 0.174961 0.173576
vt 0.341363 0.817713
vt 0.207808 0.733594
vt 0.129993 0.694209
vt 0.128630 0.358098
vt 0.166445 0.740142
vt 0.210757 0.772107
vt 0.125834 0.300207
vt 0.153269 0.417828
vt 0.153279 0.331392
vt 0.207910 0.388307
vt 0.158351 0.261544
vt 0.182370 0.174585
vt 0.356735 0.276672
vt 0.421999 0.285693
vt 0.402636 0.203764
vt 0.398774 0.354987
vt 0.340616 0.401598
vt 0.379145 0.440678
vt 0.412392 0.384536
vt 0.421985 0.346774
vt 0.345366 0.540065
vt 0.333307 0.572619
vt 0.261004 0.504937
vt 0.255787 0.512201
vt 0.246419 0.550643
vt 0.316600 0.521472
vt 0.440605 0.640119
vt 0.389332 0.576299
vt 0.255875 0.191446
vt 0.281659 0.130901
vt 0.219480 0.142413
vt 0.319102 0.172787
vt 0.344559 0.140963
vt 0.424576 0.774146
vt 0.449526 0.723891
vt 0.403722 0.731847
vt 0.385765 0.808074
vt 0.135140 0.688236
vt 0.130089 0.675812
vt 0.184936 0.649909
vt 0.126411 0.619731
vt 0.157168 0.561674
vt 0.275495 0.495306
vt 0.159135 0.435088
vt 0.151252 0.425862
vt 0.194992 0.564910
vt 0.226691 0.514479
vt 0.182678 0.540299
vt 0.379563 0.449449
vt 0.355364 0.467164
vt 0.181696 0.530187
vt 0.310797 0.483663
vt 0.306783 0.493389
vt 0.312423 0.454112
vt 0.209382 0.475814
vt 0.261958 0.402399
vt 0.201678 0.423548
vn -0.649485 0.329098 0.685466
vn -0.030275 0.388519 0.920943
vn -0.717905 0.489876 0.494605
vn -0.579697 -0.083912 0.810500
vn 0.230683 0.580656 0.780784
vn -0.684682 -0.359153 0.634208
vn -0.103555 -0.374805 0.921302
vn 0.192973 0.136005 0.971732
vn 0.667237 0.083681 0.740130
vn 0.461885 -0.583447 0.668022
vn 0.791153 -0.334412 0.512099
vn 0.812613 0.062007 0.579496
vn 0.733302 0.408275 0.543673
vn 0.715214 0.159617 -0.680435
vn 0.071634 0.126608 -0.989363
vn 0.564362 0.511971 -0.647596
vn -0.583881 0.371202 -0.722006
vn -0.322434 0.824034 -0.465838
vn 0.333392 -0.111001 -0.936231
vn 0.721923 -0.311643 -0.617823
vn 0.008285 -0.758110 -0.652074
vn -0.305870 -0.084313 -0.948333
vn -0.616760 -0.406484 -0.674075
vn -0.753302 0.195638 -0.627903
vn 0.950589 0.199667 0.237728
vn 0.890964 0.407371 0.200579
vn 0.936474 0.292619 -0.193365
vn 0.600606 0.799233 -0.022361
vn 0.853572 0.418246 -0.310620
vn 0.810346 -0.576691 -0.103762
vn 0.950984 -0.236711 0.198993
vn 0.899832 -0.108504 -0.422527
vn 0.317715 -0.897165 -0.306842
vn -0.887082 0.440399 -0.138329
vn -0.958954 0.282349 -0.026211
vn -0.888623 -0.040077 -0.456885
vn -0.786597 -0.538603 -0.301946
vn -0.946672 -0.201347 0.251537
vn -0.987252 0.114333 0.110733
vn -0.860191 0.080676 0.503550
vn -0.824880 -0.460374 0.328068
vn 0.211698 0.976228 -0.046514
vn -0.551130 0.833375 0.041740
vn -0.225045 0.786774 0.574753
vn 0.224907 -0.968056 0.110836
vn 0.448354 -0.811377 0.375029
vn -0.158957 -0.796928 0.582785
vn -0.545092 -0.838374 -0.001863
vn -0.314267 -0.924080 0.217514
vn -0.239938 -0.967482 -0.080046
vn 0.044614 -0.997731 0.050432
vn -0.130534 -0.919159 -0.371628
s 1
g BlueSuke_body BlueSuke:Mesh
usemtl BlueSuke:Low
f 9/2/1 25/8/2 20/1/3
f 9/2/1 22/4/4 25/8/2
f 20/1/3 25/8/2 24/7/5
f 5/41/6 23/5/7 22/4/4
f 23/5/7 21/3/8 22/4/4
f 23/5/7 1/6/9 21/3/8
f 23/5/7 46/56/10 1/6/9
f 46/56/10 45/54/11 1/6/9
f 45/54/11 30/18/12 1/6/9
f 21/3/8 24/7/5 25/8/2
f 22/4/4 21/3/8 25/8/2
f 21/3/8 1/6/9 24/7/5
f 1/6/9 28/14/13 24/7/5
f 2/10/14 10/9/15 41/45/16
f 41/45/16 10/9/15 27/13/17
f 41/45/16 27/13/17 42/48/18
f 2/10/14 26/11/19 10/9/15
f 33/26/20 26/11/19 2/10/14
f 33/26/20 51/72/21 26/11/19
f 51/72/21 11/12/22 26/11/19
f 11/12/22 10/9/15 26/11/19
f 4/33/23 11/12/22 51/72/21
f 4/33/23 13/29/24 11/12/22
f 11/12/22 27/13/17 10/9/15
f 13/29/24 27/13/17 11/12/22
f 1/6/9 30/18/12 28/14/13
f 30/18/12 31/22/25 28/14/13
f 28/14/13 31/22/25 29/15/26
f 31/23/25 34/27/27 29/16/26
f 28/14/13 29/15/26 6/53/28
f 29/15/26 35/17/29 6/53/28
f 32/19/30 30/18/12 45/54/11
f 32/19/30 3/21/31 30/18/12
f 30/18/12 3/21/31 31/22/25
f 31/23/25 3/20/31 12/25/32
f 31/23/25 12/25/32 34/27/27
f 32/24/30 12/25/32 3/20/31
f 32/24/30 52/73/33 33/26/20
f 32/24/30 33/26/20 12/25/32
f 33/26/20 2/10/14 12/25/32
f 34/27/27 12/25/32 2/10/14
f 6/47/28 35/28/29 41/45/16
f 29/16/26 34/27/27 35/28/29
f 35/28/29 34/27/27 41/45/16
f 34/27/27 2/10/14 41/45/16
f 27/13/17 13/29/24 36/31/34
f 40/30/35 36/31/34 13/29/24
f 14/32/36 40/30/35 13/29/24
f 4/33/23 14/32/36 13/29/24
f 15/34/37 14/32/36 4/33/23
f 15/34/37 39/35/38 14/32/36
f 39/35/38 37/36/39 14/32/36
f 37/36/39 40/30/35 14/32/36
f 39/42/38 16/38/40 37/37/39
f 15/39/37 38/40/41 39/42/38
f 38/40/41 5/41/6 39/42/38
f 39/42/38 5/41/6 22/4/4
f 39/42/38 22/4/4 16/38/40
f 22/4/4 9/2/1 16/38/40
f 40/44/35 20/1/3 36/43/34
f 16/38/40 40/44/35 37/37/39
f 16/38/40 20/1/3 40/44/35
f 9/2/1 20/1/3 16/38/40
f 42/48/18 43/46/42 41/45/16
f 41/45/16 43/46/42 6/47/28
f 36/31/34 42/48/18 27/13/17
f 36/31/34 17/49/43 42/48/18
f 42/48/18 17/49/43 43/46/42
f 20/1/3 17/51/43 36/43/34
f 20/1/3 44/52/44 17/51/43
f 20/1/3 24/7/5 44/52/44
f 43/50/42 17/51/43 44/52/44
f 43/50/42 44/52/44 6/53/28
f 44/52/44 24/7/5 6/53/28
f 6/53/28 24/7/5 28/14/13
f 46/56/10 50/57/45 18/55/46
f 46/56/10 18/55/46 45/54/11
f 23/5/7 8/62/47 46/56/10
f 46/56/10 8/62/47 50/57/45
f 18/60/46 50/71/45 32/24/30
f 45/61/11 18/60/46 32/24/30
f 5/41/6 8/62/47 23/5/7
f 48/63/48 8/62/47 5/41/6
f 48/63/48 19/64/49 8/62/47
f 38/40/41 48/63/48 5/41/6
f 38/65/41 15/34/37 48/66/48
f 48/63/48 7/67/50 19/64/49
f 8/62/47 47/58/51 50/57/45
f 19/64/49 47/58/51 8/62/47
f 7/68/50 47/59/51 19/69/49
f 7/68/50 49/70/52 47/59/51
f 48/66/48 49/70/52 7/68/50
f 48/66/48 4/33/23 49/70/52
f 48/66/48 15/34/37 4/33/23
f 49/70/52 4/33/23 51/72/21
f 52/73/33 32/24/30 50/71/45
f 49/70/52 50/71/45 47/59/51
f 51/72/21 52/73/33 50/71/45
f 49/70/52 51/72/21 50/71/45
f 51/72/21 33/26/20 52/73/33
