# This file uses centimeters as units for non-parametric coordinates.

mtllib blue_body.mtl
g default
v -0.800000 -0.800000 0.750000
v -0.800000 0.800000 0.750000
v -0.800000 -0.800000 -0.750000
v -0.800000 0.800000 -0.750000
v 0.800000 -0.800000 0.750000
v 0.800000 0.800000 0.750000
v 0.800000 -0.800000 -0.750000
v 0.800000 0.800000 -0.750000
v -0.535624 -0.543646 1.006557
v -0.535624 1.056354 1.006557
v -0.535624 -0.543646 -0.493443
v -0.535624 1.056354 -0.493443
v 0.560697 -0.543646 1.006557
v 0.560697 1.056354 1.006557
v 0.560697 -0.543646 -0.493443
v 0.560697 1.056354 -0.493443
vt 0.271875 0.553944
vt 0.163760 0.662059
vt 0.163760 0.553944
vt 0.271875 0.662059
vt 0.163760 0.770175
vt 0.271875 0.770175
vt 0.163760 0.878290
vt 0.271875 0.878290
vt 0.163760 0.986405
vt 0.055645 0.878290
vt 0.055645 0.770175
vt 0.379991 0.770175
vt 0.271875 0.986405
vt 0.379991 0.878290
vt 0.210805 0.120533
vt 0.159640 0.068397
vt 0.211290 0.068882
vt 0.159155 0.120048
vt 0.107989 0.067912
vt 0.107504 0.119563
vt 0.056338 0.067427
vt 0.055853 0.119078
vt 0.004688 0.066942
vt 0.056824 0.015777
vt 0.108474 0.016262
vt 0.107019 0.171213
vt 0.004203 0.118593
vt 0.055368 0.170728
vn -1.000000 0.000000 0.000000
vn -1.000000 0.000000 0.000000
vn -1.000000 0.000000 0.000000
vn 0.000000 0.000000 -1.000000
vn 0.000000 0.000000 -1.000000
vn 0.000000 0.000000 -1.000000
vn 1.000000 0.000000 0.000000
vn 1.000000 0.000000 0.000000
vn 1.000000 0.000000 0.000000
vn 0.000000 0.000000 1.000000
vn 0.000000 0.000000 1.000000
vn 0.000000 0.000000 1.000000
vn 0.000000 -1.000000 0.000000
vn 0.000000 -1.000000 0.000000
vn 0.000000 -1.000000 0.000000
vn -0.000000 1.000000 -0.000000
vn -0.000000 1.000000 -0.000000
vn -0.000000 1.000000 -0.000000
vn -1.000000 0.000000 0.000000
vn -1.000000 0.000000 0.000000
vn -1.000000 0.000000 0.000000
vn 0.000000 0.000000 -1.000000
vn 0.000000 0.000000 -1.000000
vn 0.000000 0.000000 -1.000000
vn 1.000000 0.000000 0.000000
vn 1.000000 0.000000 0.000000
vn 1.000000 0.000000 0.000000
vn 0.000000 0.000000 1.000000
vn 0.000000 0.000000 1.000000
vn 0.000000 0.000000 1.000000
vn 0.000000 -1.000000 0.000000
vn 0.000000 -1.000000 0.000000
vn 0.000000 -1.000000 0.000000
vn -0.000000 1.000000 -0.000000
vn -0.000000 1.000000 -0.000000
vn -0.000000 1.000000 -0.000000
vn -1.000000 0.000000 0.000000
vn -1.000000 0.000000 0.000000
vn -1.000000 0.000000 0.000000
vn 0.000000 0.000000 -1.000000
vn 0.000000 0.000000 -1.000000
vn 0.000000 0.000000 -1.000000
vn 1.000000 0.000000 0.000000
vn 1.000000 0.000000 0.000000
vn 1.000000 0.000000 0.000000
vn 0.000000 0.000000 1.000000
vn 0.000000 0.000000 1.000000
vn 0.000000 0.000000 1.000000
vn 0.000000 -1.000000 0.000000
vn 0.000000 -1.000000 0.000000
vn 0.000000 -1.000000 0.000000
vn -0.000000 1.000000 -0.000000
vn -0.000000 1.000000 -0.000000
vn -0.000000 1.000000 -0.000000
vn -1.000000 0.000000 0.000000
vn -1.000000 0.000000 0.000000
vn -1.000000 0.000000 0.000000
vn 0.000000 0.000000 -1.000000
vn 0.000000 0.000000 -1.000000
vn 0.000000 0.000000 -1.000000
vn 1.000000 0.000000 0.000000
vn 1.000000 0.000000 0.000000
vn 1.000000 0.000000 0.000000
vn 0.000000 0.000000 1.000000
vn 0.000000 0.000000 1.000000
vn 0.000000 0.000000 1.000000
vn 0.000000 -1.000000 0.000000
vn 0.000000 -1.000000 0.000000
vn 0.000000 -1.000000 0.000000
vn -0.000000 1.000000 -0.000000
vn -0.000000 1.000000 -0.000000
vn -0.000000 1.000000 -0.000000
s off
g blue_body:Mesh
usemtl lambert2SG
f 2/1/1 3/2/2 1/3/3
f 4/4/4 7/5/5 3/2/6
f 8/6/7 5/7/8 7/5/9
f 6/8/10 1/9/11 5/7/12
f 7/5/13 1/10/14 3/11/15
f 4/12/16 6/8/17 8/6/18
f 2/1/19 4/4/20 3/2/21
f 4/4/22 8/6/23 7/5/24
f 8/6/25 6/8/26 5/7/27
f 6/8/28 2/13/29 1/9/30
f 7/5/31 5/7/32 1/10/33
f 4/12/34 2/14/35 6/8/36
f 10/15/37 11/16/38 9/17/39
f 12/18/40 15/19/41 11/16/42
f 16/20/43 13/21/44 15/19/45
f 14/22/46 9/23/47 13/21/48
f 15/19/49 9/24/50 11/25/51
f 12/26/52 14/22/53 16/20/54
f 10/15/55 12/18/56 11/16/57
f 12/18/58 16/20/59 15/19/60
f 16/20/61 14/22/62 13/21/63
f 14/22/64 10/27/65 9/23/66
f 15/19/67 13/21/68 9/24/69
f 12/26/70 10/28/71 14/22/72
