# This file uses centimeters as units for non-parametric coordinates.

mtllib Midorin_tail.mtl
g default
v -0.195555 0.067242 -0.007299
v 0.124112 0.147299 0.034918
v 0.137996 0.134324 0.032717
v 0.033637 -0.190052 -0.022226
v -0.196710 -0.033395 -0.091290
v 0.060047 0.171480 -0.087967
v -0.100373 -0.126942 -0.189012
v 0.115479 0.134962 -0.094217
v -0.131495 -0.122314 -0.148239
v 0.184777 0.042350 -0.029955
v -0.010436 -0.062338 -0.430855
v 0.167966 -0.091323 -0.008807
v -0.111706 -0.085791 -0.272544
v 0.095889 0.125573 -0.174244
v -0.149396 0.077851 -0.225828
v -0.077087 -0.039301 -0.440918
v 0.086942 0.033483 -0.396179
v 0.025301 0.111622 -0.661448
v 0.079173 -0.111756 -0.182204
v 0.050988 0.093927 -0.448587
v 0.045862 0.095353 -0.499900
v -0.054613 -0.006054 -0.537765
v -0.067991 0.104706 -0.383823
v -0.010948 0.073862 -0.678491
v -0.027105 0.106467 -0.630935
v -0.093304 0.176580 0.026537
v 0.121189 0.142464 0.041846
v -0.140313 -0.155417 -0.027562
v 0.101120 0.115334 0.047840
v 0.113035 0.104012 0.045952
v 0.075564 0.177445 0.039768
v 0.092374 0.103386 0.046555
v 0.103678 0.092503 0.044749
v 0.158743 -0.005955 0.027475
v -0.127464 -0.131159 -0.002174
v -0.000530 -0.011005 0.024529
v -0.183744 -0.029153 0.012870
v -0.013255 -0.031149 0.020660
v -0.002754 -0.026363 0.021705
v -0.048117 -0.051090 0.016565
v 0.046582 0.059842 0.038492
v -0.042650 -0.064182 0.014317
v -0.072861 -0.066829 0.013438
v -0.066641 -0.080191 0.011152
v -0.007896 -0.042442 0.018730
v -0.075253 -0.094580 0.008465
v -0.082071 -0.081262 0.010735
v -0.083392 -0.108891 0.005719
v -0.090561 -0.095771 0.007965
v 0.057321 0.050918 0.037045
v -0.104408 -0.124867 0.001867
v -0.112202 -0.112484 0.004003
vt 0.269070 0.923669
vt 0.319299 0.903502
vt 0.927400 0.128113
vt 0.928165 0.130281
vt 0.321535 0.900325
vt 0.884913 0.171275
vt 0.247521 0.918200
vt 0.311492 0.886067
vt 0.893144 0.208072
vt 0.318845 0.878768
vt 0.948662 0.141219
vt 0.887341 0.210176
vt 0.227214 0.912938
vt 0.925356 0.141182
vt 0.929924 0.207190
vt 0.903819 0.150087
vt 0.903002 0.216445
vt 0.225805 0.894503
vt 0.311791 0.870230
vt 0.954535 0.150366
vt 0.260909 0.894706
vt 0.926258 0.220573
vt 0.230826 0.870714
vt 0.948592 0.183694
vt 0.976175 0.208619
vt 0.910779 0.176818
vt 0.280878 0.849434
vt 0.963297 0.184851
vt 0.276086 0.845209
vt 0.965995 0.190590
vt 0.940195 0.222897
vt 0.235478 0.857258
vt 0.265881 0.869676
vt 0.965655 0.222485
vt 0.246768 0.834881
vt 0.255140 0.839957
vt 0.261673 0.830920
vt 0.295016 0.915968
vt 0.320055 0.905515
vt 0.926201 0.129251
vt 0.875230 0.191687
vt 0.242173 0.932450
vt 0.317960 0.916691
vt 0.918803 0.126181
vt 0.917932 0.127803
vt 0.251012 0.939237
vt 0.315531 0.906284
vt 0.317193 0.920067
vt 0.319941 0.918152
vt 0.318592 0.919927
vt 0.914537 0.125987
vt 0.906809 0.136819
vt 0.870166 0.179661
vt 0.260689 0.934891
vt 0.297349 0.961970
vt 0.291652 0.964201
vt 0.871083 0.130382
vt 0.869863 0.134392
vt 0.294197 0.964709
vt 0.868332 0.136196
vt 0.290384 0.965497
vt 0.280931 0.959501
vt 0.864929 0.146226
vt 0.311551 0.940362
vt 0.892221 0.121228
vt 0.864586 0.155129
vt 0.866356 0.148934
vt 0.277680 0.960370
vt 0.273218 0.954832
vt 0.866546 0.157374
vt 0.869128 0.138873
vt 0.867191 0.162572
vt 0.864505 0.160386
vt 0.270111 0.956018
vt 0.268336 0.952736
vt 0.869425 0.167332
vt 0.866166 0.165416
vt 0.265498 0.952453
vt 0.263822 0.949901
vt 0.314028 0.938540
vt 0.894062 0.122882
vt 0.870219 0.174166
vt 0.868018 0.172560
vt 0.261363 0.950047
vt 0.256799 0.943296
vt 0.912273 0.123197
vt 0.254530 0.943371
vn 0.041591 0.708226 0.704759
vn 0.317560 0.156053 0.935309
vn 0.557731 0.826957 -0.071257
vn 0.875823 0.448460 0.178376
vn 0.414288 -0.191214 0.889833
vn 0.745120 0.637113 -0.197189
vn 0.877407 -0.479745 0.000989
vn 0.986713 0.054684 -0.152997
vn -0.917256 -0.334085 -0.216863
vn -0.771218 -0.635553 -0.035994
vn -0.713679 -0.201108 0.670983
vn -0.951267 -0.266840 -0.154555
vn -0.864589 0.477989 0.154960
vn -0.173119 -0.951218 -0.255371
vn 0.123771 -0.983019 0.135481
vn -0.311384 -0.936903 0.158908
vn -0.814678 -0.503081 -0.288462
vn 0.626509 -0.709186 -0.323330
vn -0.879241 0.397961 -0.261846
vn -0.353410 0.809307 0.469173
vn 0.017698 0.986172 -0.164781
vn 0.433505 -0.810866 -0.393154
vn 0.769338 0.598144 -0.224371
vn 0.930243 -0.190959 -0.313342
vn -0.173094 0.974514 -0.142695
vn 0.266663 0.955585 -0.125490
vn 0.854687 -0.295665 -0.426722
vn -0.899509 -0.269889 -0.343575
vn -0.805604 0.541034 -0.241423
vn 0.706895 0.706402 -0.035981
vn -0.524282 -0.687650 -0.502260
vn 0.382252 -0.672944 -0.633269
vn 0.319532 -0.017289 0.947418
vn -0.000802 0.081408 0.996681
vn -0.019985 -0.165655 0.985981
vn -0.239751 -0.007115 0.970808
vn 0.007153 -0.167792 0.985796
vn -0.012828 -0.178391 0.983876
vn -0.036870 -0.168991 0.984928
vn -0.043692 -0.154641 0.987004
vn 0.016522 -0.257288 0.966194
vn -0.042658 -0.128927 0.990736
vn -0.016382 -0.172567 0.984862
vn -0.096775 -0.010337 0.995253
vn -0.046103 -0.135375 0.989721
vn -0.013190 -0.175496 0.984392
vn 0.050715 -0.247526 0.967553
vn -0.052981 -0.153978 0.986653
vn 0.043686 -0.254385 0.966116
vn -0.055035 -0.159039 0.985737
vn -0.015937 -0.353290 0.935378
vn -0.091000 -0.187233 0.978092
s 1
g GREEN_TAIL
usemtl Midorin:Head_1
f 31/47/1 27/39/2 2/2/3
f 2/3/3 27/40/2 3/4/4
f 3/4/4 27/40/2 34/52/5
f 8/10/6 31/47/1 2/2/3
f 8/10/6 2/2/3 3/5/4
f 12/16/7 10/14/8 34/52/5
f 9/13/9 28/42/10 37/54/11
f 5/7/12 37/54/11 1/1/13
f 34/52/5 10/14/8 3/4/4
f 7/9/14 4/6/15 35/53/16
f 28/41/10 7/9/14 35/53/16
f 10/14/8 8/11/6 3/4/4
f 9/12/9 7/9/14 28/41/10
f 13/18/17 9/13/9 37/54/11
f 13/18/17 37/54/11 5/7/12
f 4/6/15 19/26/18 12/16/7
f 15/21/19 5/7/12 1/1/13
f 15/21/19 1/1/13 26/38/20
f 26/38/20 31/47/1 6/8/21
f 6/8/21 31/47/1 8/10/6
f 11/15/22 19/26/18 4/6/15
f 7/9/14 11/15/22 4/6/15
f 14/20/23 8/11/6 10/14/8
f 17/24/24 14/20/23 10/14/8
f 14/19/23 6/8/21 8/10/6
f 13/17/17 7/9/14 9/12/9
f 23/33/25 26/38/20 6/8/21
f 17/24/24 10/14/8 12/16/7
f 19/26/18 17/24/24 12/16/7
f 23/33/25 6/8/21 20/27/26
f 14/19/23 20/27/26 6/8/21
f 17/24/24 20/28/26 14/20/23
f 23/33/25 15/21/19 26/38/20
f 19/26/18 18/25/27 17/24/24
f 16/22/28 7/9/14 13/17/17
f 16/23/28 5/7/12 15/21/19
f 11/15/22 7/9/14 16/22/28
f 16/23/28 13/18/17 5/7/12
f 25/36/29 15/21/19 23/33/25
f 17/24/24 21/30/30 20/28/26
f 20/27/26 25/36/29 23/33/25
f 21/29/30 25/36/29 20/27/26
f 25/36/29 16/23/28 15/21/19
f 22/31/31 11/15/22 16/22/28
f 11/15/22 18/25/27 19/26/18
f 18/37/27 25/36/29 21/29/30
f 16/23/28 25/36/29 22/32/31
f 25/36/29 24/35/32 22/32/31
f 18/25/27 21/30/30 17/24/24
f 18/25/27 11/15/22 24/34/32
f 24/34/32 11/15/22 22/31/31
f 18/37/27 24/35/32 25/36/29
f 1/1/13 37/54/11 26/38/20
f 27/40/2 30/45/33 34/52/5
f 26/38/20 37/54/11 31/47/1
f 27/39/2 31/47/1 29/43/34
f 27/40/2 29/44/34 30/45/33
f 28/42/10 35/46/16 37/54/11
f 34/52/5 4/6/15 12/16/7
f 50/80/35 32/48/36 31/47/1
f 31/47/1 32/48/36 29/43/34
f 29/43/34 32/48/36 30/49/33
f 30/49/33 32/48/36 33/50/37
f 30/45/33 33/51/37 34/52/5
f 39/58/38 34/52/5 36/57/39
f 36/55/39 38/56/40 39/59/38
f 38/56/40 36/55/39 37/54/11
f 38/60/40 45/71/41 39/58/38
f 37/54/11 40/62/42 38/56/40
f 38/56/40 40/62/42 45/61/41
f 34/52/5 50/81/35 36/57/39
f 34/52/5 39/58/38 45/71/41
f 40/63/42 42/67/43 45/71/41
f 36/55/39 41/64/44 37/54/11
f 42/68/43 40/62/42 43/69/45
f 36/57/39 50/81/35 41/65/44
f 44/70/46 46/72/47 42/67/43
f 42/67/43 43/66/45 44/70/46
f 40/62/42 37/54/11 43/69/45
f 42/67/43 46/72/47 45/71/41
f 46/72/47 44/70/46 47/73/48
f 44/74/46 43/69/45 47/75/48
f 47/75/48 43/69/45 37/54/11
f 46/72/47 4/6/15 45/71/41
f 46/72/47 48/76/49 4/6/15
f 48/76/49 46/72/47 49/77/50
f 46/78/47 47/75/48 49/79/50
f 47/75/48 37/54/11 49/79/50
f 41/64/44 31/47/1 37/54/11
f 50/80/35 31/47/1 41/64/44
f 34/52/5 45/71/41 4/6/15
f 48/76/49 51/82/51 4/6/15
f 51/82/51 48/76/49 52/83/52
f 48/84/49 49/79/50 52/85/52
f 49/79/50 37/54/11 52/85/52
f 34/52/5 33/51/37 50/81/35
f 51/82/51 35/53/16 4/6/15
f 50/81/35 33/51/37 32/86/36
f 51/87/51 52/85/52 35/46/16
f 52/85/52 37/54/11 35/46/16
