# This file uses centimeters as units for non-parametric coordinates.

mtllib Midorin_leg_l.mtl
g default
v 0.126859 -0.034319 -0.271457
v 0.181763 -0.944757 0.103303
v 0.094394 -1.076305 -0.096570
v -0.193307 -0.769903 0.138059
v 0.026350 -0.684828 0.283766
v -0.209023 -0.672175 0.059671
v 0.235636 -0.576978 0.087982
v -0.215110 -0.482911 0.036762
v -0.260727 -0.084954 -0.003257
v 0.278366 -0.117729 0.051455
v 0.183732 -0.020660 0.215493
v 0.078370 -0.285385 0.232776
v 0.298320 -0.026873 -0.019598
v -0.034105 -1.102049 0.018822
v -0.020597 -1.080267 -0.128471
v 0.297975 -0.026915 0.005160
v -0.058188 -0.020943 0.261757
v -0.268691 -0.027247 -0.003199
v -0.264436 -0.015294 -0.019605
v -0.058410 -0.019921 -0.284512
v -0.186537 -0.010223 -0.043846
v -0.068650 -0.010404 -0.022799
v 0.032117 -1.084371 0.163628
v -0.170522 -0.966293 0.139273
v -0.122929 -1.006673 -0.079342
v -0.175967 -0.936341 0.147612
v -0.184412 -0.911444 0.141296
v -0.019268 -0.899977 0.267702
v -0.199941 -0.747872 0.116222
v 0.208484 -0.818576 0.117342
v -0.086383 -0.711022 0.259081
v 0.142134 -0.954678 0.181924
v 0.250795 -0.312699 0.047897
v -0.213098 -0.457319 -0.039055
v 0.231538 -0.288082 0.108644
v -0.250538 -0.135185 0.027835
v 0.288866 -0.092657 0.004837
v -0.241287 -0.020727 0.108041
v 0.087600 -1.096043 0.028415
v -0.125492 -1.094783 0.085758
v -0.075228 -1.103895 0.050919
v -0.225765 -0.020183 -0.159881
v 0.197990 -0.010038 -0.028827
v -0.224448 -0.010008 -0.098573
v -0.002209 -0.010242 -0.074785
v 0.231625 -0.034379 -0.193434
v -0.021628 -0.010403 -0.022115
v 0.017862 -0.010367 -0.025740
v -0.118738 -0.010572 0.205387
v -0.040788 -0.010377 -0.033521
v -0.114194 -0.010376 -0.022958
v -0.149581 -0.010291 -0.040378
vt 0.804383 0.641217
vt 0.819018 0.231913
vt 0.851021 0.205990
vt 0.886908 0.678939
vt 0.774923 0.214835
vt 0.786182 0.662546
vt 0.783463 0.667256
vt 0.817575 0.665611
vt 0.857716 0.658730
vt 0.774200 0.209514
vt 0.782318 0.672322
vt 0.772218 0.205330
vt 0.805782 0.199797
vt 0.775788 0.695937
vt 0.768825 0.181141
vt 0.766039 0.177468
vt 0.777254 0.700567
vt 0.892480 0.701062
vt 0.851941 0.183430
vt 0.780535 0.714769
vt 0.791391 0.169139
vt 0.838036 0.207392
vt 0.810811 0.163097
vt 0.759015 0.165026
vt 0.893015 0.741513
vt 0.854198 0.141584
vt 0.774808 0.745962
vt 0.892009 0.785988
vt 0.855810 0.097179
vt 0.754114 0.133818
vt 0.782355 0.752467
vt 0.892466 0.819979
vt 0.760894 0.803497
vt 0.886249 0.825454
vt 0.847536 0.093660
vt 0.745178 0.076926
vt 0.742471 0.067317
vt 0.763186 0.813674
vt 0.859202 0.057546
vt 0.882589 0.838762
vt 0.856694 0.064903
vt 0.829863 0.050093
vt 0.815329 0.095785
vt 0.754756 0.055212
vt 0.762937 0.825225
vt 0.841311 0.834050
vt 0.879824 0.838993
vt 0.856876 0.043977
vt 0.841601 0.241350
vt 0.781944 0.238710
vt 0.791953 0.246569
vt 0.804294 0.250879
vt 0.833581 0.637514
vt 0.837700 0.656360
vt 0.820185 0.636491
vt 0.866799 0.645304
vt 0.856006 0.046420
vt 0.788675 0.053618
vt 0.744770 0.056134
vt 0.744090 0.052503
vt 0.764463 0.828277
vt 0.773178 0.844463
vt 0.778546 0.828761
vt 0.809197 0.832975
vt 0.842430 0.024302
vt 0.750172 0.034648
vt 0.773826 0.834171
vt 0.814401 0.862794
vt 0.860897 0.835753
vt 0.788527 0.015665
vt 0.797695 0.014062
vt 0.818570 0.869693
vt 0.808705 0.868357
vt 0.777239 0.049589
vt 0.783728 0.015237
vt 0.804421 0.865765
vt 0.797049 0.864497
vt 0.777557 0.018439
vt 0.785661 0.858663
vt 0.756992 0.027379
vt 0.779384 0.851535
vt 0.766928 0.023109
vt 0.864236 0.860354
vn 0.561518 -0.823099 0.084882
vn 0.689567 -0.237069 -0.684322
vn 0.931435 -0.363832 0.007447
vn 0.104938 -0.756217 0.645851
vn 0.616457 -0.205209 0.760178
vn -0.067021 -0.286814 0.955639
vn -0.694392 -0.669684 0.263331
vn -0.673532 -0.214180 -0.707448
vn -0.068560 -0.263593 -0.962194
vn -0.546042 -0.459647 0.700402
vn -0.972568 -0.144482 0.182308
vn 0.749085 0.083523 -0.657187
vn 0.959268 -0.147857 -0.240714
vn -0.598099 -0.179285 0.781111
vn 0.449665 0.018596 0.893004
vn -0.562646 -0.004901 0.826683
vn -0.941602 -0.057954 0.331705
vn -0.946700 -0.119597 -0.299091
vn -0.684560 0.040680 -0.727821
vn 0.986046 -0.101774 0.131742
vn -0.989561 -0.041284 0.138075
vn -0.996625 -0.077725 0.026413
vn 0.300570 -0.103322 -0.948147
vn 0.723294 -0.059914 0.687936
vn 0.235334 0.017531 0.971757
vn -0.931970 -0.096566 0.349438
vn 0.992145 -0.095345 -0.080986
vn -0.454121 0.303679 0.837588
vn -0.286454 0.053103 -0.956621
vn 0.936728 -0.218795 -0.273259
vn -0.976586 -0.102876 0.188937
vn 0.392074 0.592384 0.703818
vn -0.748833 0.111637 0.653289
vn 0.893909 -0.044013 0.446083
vn -0.099043 0.544978 0.832580
vn -0.955392 -0.089184 -0.281555
vn -0.905675 0.368202 -0.210193
vn 0.810692 0.505142 -0.295991
vn 0.603048 0.752772 0.263945
vn -0.594586 0.804025 0.003389
vn 0.063553 0.997422 -0.033329
vn -0.322986 0.935611 0.142519
vn -0.052977 -0.990202 -0.129206
vn 0.021013 -0.971566 0.235833
vn -0.100666 0.994314 0.034730
vn 0.031040 0.997388 -0.065224
vn 0.000697 0.999992 0.003879
vn -0.000352 1.000000 0.000892
vn -0.001727 0.999998 0.000431
vn 0.000106 0.999999 0.001416
vn 0.000090 0.999999 0.001314
vn 0.001268 0.999998 0.001376
s 1
g GREEN_LEG_L
usemtl Midorin:Head_1
f 39/56/1 3/9/2 2/4/3
f 39/49/1 2/3/3 23/2/4
f 2/3/3 32/22/5 23/2/4
f 23/2/4 28/13/6 40/50/7
f 40/1/7 25/8/8 15/54/9
f 24/6/10 27/11/11 40/1/7
f 28/13/6 24/5/10 40/50/7
f 3/9/2 46/69/12 30/18/13
f 24/6/10 26/7/14 27/11/11
f 27/11/11 25/8/8 40/1/7
f 28/13/6 23/2/4 32/22/5
f 3/9/2 30/18/13 2/4/3
f 28/13/6 26/10/14 24/5/10
f 15/54/9 46/69/12 3/9/2
f 28/13/6 27/12/11 26/10/14
f 30/19/13 32/22/5 2/3/3
f 5/23/15 28/13/6 32/22/5
f 5/23/15 31/21/16 28/13/6
f 28/13/6 31/21/16 27/12/11
f 27/12/11 31/21/16 4/15/17
f 27/11/11 4/14/17 25/8/8
f 25/8/8 34/31/18 42/63/19
f 30/19/13 7/26/20 32/22/5
f 25/8/8 4/14/17 29/17/21
f 4/15/17 31/21/16 29/16/21
f 25/8/8 29/17/21 6/20/22
f 46/69/12 7/25/20 30/18/13
f 15/54/9 1/46/23 46/69/12
f 35/35/24 5/23/15 32/22/5
f 12/43/25 31/21/16 5/23/15
f 25/8/8 6/20/22 34/31/18
f 7/26/20 35/35/24 32/22/5
f 29/16/21 31/21/16 6/24/22
f 35/35/24 12/43/25 5/23/15
f 34/31/18 6/20/22 8/27/26
f 6/24/22 31/21/16 8/30/26
f 46/69/12 33/28/27 7/25/20
f 33/29/27 35/35/24 7/26/20
f 31/21/16 12/43/25 49/74/28
f 15/54/9 25/8/8 20/64/29
f 46/69/12 37/34/30 33/28/27
f 8/27/26 36/33/31 34/31/18
f 35/35/24 11/42/32 12/43/25
f 31/21/16 38/44/33 8/30/26
f 37/34/30 10/32/34 33/28/27
f 10/41/34 35/35/24 33/29/27
f 31/21/16 49/74/28 38/44/33
f 8/30/26 38/44/33 36/36/31
f 12/43/25 17/58/35 49/74/28
f 34/31/18 36/33/31 9/38/36
f 34/31/18 44/67/37 42/63/19
f 46/69/12 13/47/38 37/34/30
f 13/47/38 16/40/39 37/34/30
f 16/57/39 10/41/34 37/39/30
f 10/41/34 11/42/32 35/35/24
f 9/37/36 36/36/31 38/44/33
f 9/37/36 38/44/33 18/59/40
f 34/31/18 9/38/36 44/67/37
f 10/41/34 16/57/39 11/42/32
f 16/57/39 43/65/41 11/42/32
f 12/43/25 11/42/32 17/58/35
f 18/45/40 19/61/42 44/67/37
f 9/38/36 18/45/40 44/67/37
f 42/63/19 20/64/29 25/8/8
f 20/64/29 1/46/23 15/54/9
f 40/50/7 39/49/1 23/2/4
f 14/52/43 39/49/1 41/51/44
f 15/54/9 39/56/1 14/53/43
f 40/1/7 15/54/9 14/53/43
f 40/1/7 14/53/43 41/55/44
f 3/9/2 39/56/1 15/54/9
f 41/51/44 39/49/1 40/50/7
f 13/48/38 43/65/41 16/57/39
f 11/42/32 43/65/41 17/58/35
f 17/58/35 43/65/41 49/74/28
f 38/44/33 49/74/28 18/59/40
f 49/74/28 21/66/45 18/59/40
f 18/59/40 21/66/45 19/60/42
f 21/62/45 44/67/37 19/61/42
f 44/67/37 45/68/46 42/63/19
f 42/63/19 45/68/46 20/64/29
f 20/64/29 45/68/46 46/69/12
f 1/46/23 20/64/29 46/69/12
f 46/69/12 43/83/41 13/47/38
f 21/62/45 52/81/47 44/67/37
f 47/73/48 48/72/49 45/68/46
f 48/71/49 47/70/48 49/74/28
f 47/73/48 45/68/46 50/76/50
f 45/68/46 48/72/49 43/83/41
f 48/71/49 49/74/28 43/65/41
f 50/75/50 49/74/28 47/70/48
f 50/75/50 22/78/51 49/74/28
f 50/76/50 45/68/46 22/77/51
f 22/78/51 51/82/52 49/74/28
f 51/79/52 22/77/51 45/68/46
f 52/81/47 51/79/52 45/68/46
f 46/69/12 45/68/46 43/83/41
f 51/82/52 21/66/45 49/74/28
f 51/82/52 52/80/47 21/66/45
f 52/81/47 45/68/46 44/67/37
