# This file uses centimeters as units for non-parametric coordinates.

mtllib Midorin_leg_r.mtl
g default
v -0.295731 0.005779 -0.039314
v 0.138188 0.010434 -0.032390
v -0.189491 -0.914023 0.080487
v -0.168345 -0.827475 0.198957
v -0.201982 -0.537029 0.171757
v 0.197076 -0.687666 0.107554
v 0.213960 -0.385703 0.048570
v -0.286287 -0.014044 0.074225
v -0.290720 -0.080148 -0.014685
v -0.284201 -0.105200 0.024507
v 0.265197 -0.014285 0.001460
v -0.300472 -0.013854 -0.023142
v 0.238650 0.000039 0.104462
v -0.071577 -1.076104 0.003791
v 0.225975 0.010585 -0.029218
v 0.188539 -0.013799 -0.209371
v 0.058030 0.010375 -0.031983
v -0.207832 -0.829705 0.088789
v 0.016631 -0.879211 0.264123
v 0.173905 -0.852617 0.165875
v 0.181060 -0.834003 0.155442
v -0.138147 -1.051922 -0.038723
v -0.236769 -0.602470 0.073017
v 0.187915 -0.787621 0.143306
v 0.187828 -0.720854 0.138130
v 0.203538 -0.644088 0.074705
v 0.017960 -1.059501 -0.132050
v -0.246060 -0.428539 0.038503
v -0.081007 -0.264619 0.229197
v 0.204600 -0.790161 0.041301
v -0.260769 -0.265288 0.022651
v 0.107208 -0.453484 0.205672
v -0.186370 0.000106 0.211914
v 0.253859 -0.080937 0.016938
v 0.244701 -0.106137 0.047511
v 0.109683 -0.013656 -0.268097
v 0.260223 -0.047553 0.001271
v 0.125141 -1.066366 0.094785
v -0.097614 -1.074207 0.018646
v -0.034754 -1.063605 0.160048
v 0.070377 -1.083775 0.057943
v 0.036764 -1.080867 0.009330
v 0.261393 -0.014136 -0.064198
v -0.234262 -0.013613 -0.197014
v 0.162190 0.010454 -0.026628
v 0.083034 0.010369 -0.026453
v 0.021807 0.010459 -0.060283
v -0.151481 0.000871 -0.263843
v 0.117073 0.010395 -0.026551
v -0.146743 0.010691 -0.066107
v 0.021985 0.008134 0.255401
v -0.176397 0.010699 -0.043926
vt 0.524768 0.878230
vt 0.164305 0.854359
vt 0.513776 0.985773
vt 0.510631 0.872893
vt 0.151843 0.846052
vt 0.189650 0.812431
vt 0.206826 0.786266
vt 0.160697 0.833267
vt 0.509701 0.985299
vt 0.200459 0.776445
vt 0.205449 0.782890
vt 0.544213 0.898808
vt 0.473300 0.865157
vt 0.501206 0.985246
vt 0.119075 0.806755
vt 0.490107 0.985997
vt 0.483613 0.983079
vt 0.191873 0.768957
vt 0.189605 0.762680
vt 0.186115 0.755312
vt 0.475727 0.979984
vt 0.119022 0.824548
vt 0.542498 0.928523
vt 0.444047 0.862504
vt 0.093894 0.808994
vt 0.155077 0.725597
vt 0.432704 0.982716
vt 0.099315 0.760217
vt 0.499477 0.972667
vt 0.416874 0.857902
vt 0.071158 0.794630
vt 0.145788 0.753522
vt 0.053924 0.745436
vt 0.041718 0.762677
vt 0.382530 0.859435
vt 0.388468 0.854946
vt 0.380333 0.984318
vt 0.049133 0.780106
vt 0.385553 0.987858
vt 0.121927 0.693171
vt 0.119183 0.688053
vt 0.366491 0.942192
vt 0.042905 0.777277
vt 0.113526 0.684077
vt 0.373786 0.982064
vt 0.107149 0.681736
vt 0.367390 0.981204
vt 0.368385 0.862509
vt 0.100381 0.687849
vt 0.035966 0.766641
vt 0.551532 0.966233
vt 0.233653 0.815057
vt 0.556110 0.901400
vt 0.197532 0.869257
vt 0.207450 0.842312
vt 0.560511 0.950452
vt 0.233820 0.829849
vt 0.559485 0.937146
vt 0.232371 0.841484
vt 0.204350 0.867713
vt 0.557828 0.908974
vt 0.094664 0.675424
vt 0.355307 0.975181
vt 0.366633 0.956928
vt 0.367033 0.975562
vt 0.367625 0.881461
vt 0.363565 0.865117
vt 0.032401 0.762367
vt 0.078271 0.675834
vt 0.342895 0.965821
vt 0.045529 0.689466
vt 0.054343 0.686488
vt 0.059590 0.683617
vt 0.332765 0.929714
vt 0.364394 0.897027
vt 0.332285 0.946273
vt 0.330986 0.939405
vt 0.024311 0.725817
vt 0.066843 0.679603
vt 0.336067 0.955357
vt 0.338904 0.890631
vt 0.071666 0.676959
vt 0.339466 0.959979
vt 0.025512 0.734302
vt 0.075388 0.717095
vt 0.340269 0.882090
vn -0.271246 -0.629885 0.727785
vn -0.526949 -0.116329 0.841898
vn -0.701949 -0.622320 0.346389
vn 0.834030 -0.185736 -0.519515
vn 0.861569 -0.499247 0.091937
vn 0.119229 -0.284569 -0.951212
vn 0.772315 0.035678 -0.634237
vn 0.683044 -0.185052 0.706545
vn 0.062290 -0.158722 0.985356
vn -0.822826 -0.465986 0.325292
vn -0.662494 -0.241093 -0.709208
vn -0.990539 -0.137138 -0.005054
vn 0.967053 -0.190157 0.169261
vn 0.968731 -0.042074 0.244519
vn 0.794127 0.075000 0.603107
vn -0.968423 -0.125873 -0.215206
vn -0.676638 -0.011933 0.736219
vn 0.938968 0.092316 0.331387
vn -0.214091 0.007151 -0.976788
vn 0.466381 0.020258 0.884352
vn 0.927379 0.040464 0.371929
vn -0.132044 -0.042032 0.990352
vn -0.751530 -0.018782 -0.659431
vn -0.996875 -0.077592 -0.014819
vn 0.899003 -0.063422 0.433326
vn 0.156886 -0.071660 -0.985014
vn 0.915460 -0.051056 -0.399158
vn -0.986006 -0.136095 -0.096279
vn -0.549259 0.434025 0.714099
vn -0.828085 0.291102 0.479097
vn -0.926646 -0.206646 -0.314047
vn 0.991630 -0.120863 0.045417
vn -0.978744 -0.125663 0.162076
vn 0.959482 -0.101090 0.263013
vn 0.296072 0.320896 0.899648
vn 0.627797 0.307615 0.715014
vn 0.849070 0.522463 0.078185
vn 0.982323 -0.141291 0.122795
vn -0.981294 -0.093586 -0.168235
vn 0.142689 0.989221 -0.032875
vn -0.240511 0.969620 -0.044628
vn 0.181184 -0.983437 0.004811
vn -0.094542 -0.992078 -0.082726
vn -0.023410 -0.998751 -0.044139
vn -0.062483 0.998045 -0.001622
vn -0.000023 0.999356 -0.035896
vn 0.020037 0.999310 -0.031277
vn 0.028383 0.998490 -0.047043
vn -0.017359 0.999524 -0.025505
vn 0.004796 0.999210 -0.039460
vn -0.003736 0.999375 -0.035147
vn -0.007050 0.991312 -0.131346
s 1
g GREEN_LEG_R
usemtl Midorin:Head_1
f 40/55/1 4/8/2 39/54/3
f 30/29/4 38/51/5 27/23/6
f 30/29/4 27/23/6 16/64/7
f 20/7/8 19/6/9 40/55/1
f 20/7/8 40/55/1 38/52/5
f 20/3/8 38/51/5 30/29/4
f 39/53/3 3/1/10 22/12/11
f 18/4/12 22/12/11 3/1/10
f 4/8/2 3/2/10 39/54/3
f 4/8/2 40/55/1 19/6/9
f 4/8/2 18/5/12 3/2/10
f 30/29/4 21/9/13 20/3/8
f 24/14/14 21/9/13 30/29/4
f 24/10/14 20/7/8 21/11/13
f 24/10/14 25/18/15 20/7/8
f 23/13/16 22/12/11 18/4/12
f 5/15/17 23/22/16 18/5/12
f 5/15/17 18/5/12 4/8/2
f 6/17/18 25/16/15 24/14/14
f 30/29/4 6/17/18 24/14/14
f 48/75/19 27/23/6 22/12/11
f 32/32/20 20/7/8 25/18/15
f 6/19/18 32/32/20 25/18/15
f 26/21/21 6/17/18 30/29/4
f 20/7/8 32/32/20 19/6/9
f 26/20/21 32/32/20 6/19/18
f 29/28/22 4/8/2 19/6/9
f 23/13/16 44/66/23 22/12/11
f 28/25/24 23/22/16 5/15/17
f 29/28/22 5/15/17 4/8/2
f 30/29/4 7/27/25 26/21/21
f 27/23/6 36/42/26 16/64/7
f 44/66/23 23/13/16 28/24/24
f 7/26/25 32/32/20 26/20/21
f 43/65/27 7/27/25 30/29/4
f 32/32/20 29/28/22 19/6/9
f 44/66/23 48/75/19 22/12/11
f 31/30/28 44/66/23 28/24/24
f 31/31/28 28/25/24 5/15/17
f 43/65/27 30/29/4 16/64/7
f 48/75/19 36/42/26 27/23/6
f 33/33/29 5/15/17 29/28/22
f 8/34/30 5/15/17 33/33/29
f 9/35/31 44/66/23 31/30/28
f 34/37/32 7/27/25 43/65/27
f 10/36/33 9/35/31 31/30/28
f 10/38/33 31/31/28 5/15/17
f 34/37/32 35/39/34 7/27/25
f 10/38/33 5/15/17 8/34/30
f 51/85/35 29/28/22 32/32/20
f 32/32/20 13/49/36 51/85/35
f 7/26/25 13/49/36 32/32/20
f 35/40/34 13/49/36 7/26/25
f 11/47/37 37/45/38 43/65/27
f 37/45/38 34/37/32 43/65/27
f 12/50/39 9/43/31 10/38/33
f 12/50/39 10/38/33 8/34/30
f 33/33/29 29/28/22 51/85/35
f 34/41/32 13/49/36 35/40/34
f 37/44/38 13/49/36 34/41/32
f 11/46/37 13/49/36 37/44/38
f 12/48/39 44/66/23 9/35/31
f 11/46/37 15/62/40 13/49/36
f 43/65/27 15/63/40 11/47/37
f 1/67/41 44/66/23 12/48/39
f 8/34/30 1/68/41 12/50/39
f 40/55/1 41/57/42 38/52/5
f 38/51/5 41/56/42 27/23/6
f 27/23/6 14/61/43 22/12/11
f 14/61/43 39/53/3 22/12/11
f 14/61/43 27/23/6 42/58/44
f 42/59/44 40/55/1 14/60/43
f 27/23/6 41/56/42 42/58/44
f 14/60/43 40/55/1 39/54/3
f 41/57/42 40/55/1 42/59/44
f 52/84/45 8/34/30 33/33/29
f 51/85/35 52/84/45 33/33/29
f 15/62/40 45/69/46 51/85/35
f 15/62/40 51/85/35 13/49/36
f 43/65/27 16/64/7 15/63/40
f 48/75/19 16/64/7 36/42/26
f 52/84/45 1/68/41 8/34/30
f 45/70/46 15/63/40 16/64/7
f 51/85/35 17/72/47 47/71/48
f 50/78/49 51/85/35 47/71/48
f 48/75/19 44/66/23 50/81/49
f 47/74/48 48/75/19 50/81/49
f 51/85/35 50/78/49 52/84/45
f 51/85/35 46/73/50 17/72/47
f 17/77/47 46/76/50 16/64/7
f 49/80/51 16/64/7 46/76/50
f 51/85/35 49/79/51 46/73/50
f 17/77/47 16/64/7 47/74/48
f 45/69/46 49/79/51 51/85/35
f 2/82/52 49/79/51 45/69/46
f 2/83/52 16/64/7 49/80/51
f 47/74/48 16/64/7 48/75/19
f 44/66/23 52/86/45 50/81/49
f 45/70/46 16/64/7 2/83/52
f 52/86/45 44/66/23 1/67/41
