# This file uses centimeters as units for non-parametric coordinates.

mtllib Kiichan_tail.mtl
g default
v -0.195661 0.815154 -0.060011
v 0.164021 0.877892 -0.187140
v -0.061360 0.658488 -0.052192
v -0.196461 0.833921 -0.056484
v -0.055381 0.812935 -0.512224
v -0.156936 0.853063 -0.249243
v -0.054629 0.945537 -0.418693
v 0.094934 0.884872 -0.454481
v 0.077166 0.897572 -0.554583
v 0.028797 0.819358 -0.559638
v -0.073196 0.878953 -0.538556
v 0.002049 0.936898 -0.717662
v 0.165028 0.963608 -0.013941
v -0.170382 0.811678 -0.022000
v 0.014101 1.034648 0.006616
v 0.161320 0.718187 -0.059532
v 0.001799 0.829528 -0.010593
v 0.020169 0.838727 -0.008576
v 0.045955 0.830790 -0.009507
v 0.063509 0.831313 -0.009037
v 0.080825 0.831838 -0.008560
v 0.097818 0.832368 -0.008088
v 0.123136 0.846028 -0.005113
v 0.037310 0.946434 0.011641
v 0.139643 0.845936 -0.004899
v 0.066372 0.749987 -0.023556
v 0.164053 0.854235 -0.003734
vt 0.265126 0.069467
vt 0.484879 0.027152
vt 0.432829 0.105652
vt 0.356091 0.109522
vt 0.293443 0.058050
vt 0.485051 0.030125
vt 0.261511 0.070422
vt 0.283273 0.132721
vt 0.252029 0.102155
vt 0.502786 0.054085
vt 0.489550 0.086827
vt 0.330318 0.139858
vt 0.468433 0.115898
vt 0.480425 0.120282
vt 0.303034 0.141541
vt 0.322507 0.152177
vt 0.508487 0.093188
vt 0.271362 0.142477
vt 0.290193 0.171391
vt 0.508442 0.121091
vt 0.423064 0.076392
vt 0.476103 0.023929
vt 0.271867 0.057660
vt 0.439925 0.055564
vt 0.339276 0.072336
vt 0.314753 0.020423
vt 0.422622 0.018191
vt 0.320967 0.021994
vt 0.419275 0.022980
vt 0.327932 0.028719
vt 0.415082 0.028813
vt 0.332416 0.033334
vt 0.413252 0.034669
vt 0.336357 0.037980
vt 0.411690 0.040336
vt 0.339919 0.042570
vt 0.411877 0.045749
vt 0.347051 0.048933
vt 0.426759 0.043697
vt 0.412313 0.055486
vt 0.348393 0.055450
vt 0.326026 0.044214
vt 0.412979 0.060825
vt 0.414703 0.069514
vt 0.352087 0.062857
vn -0.764146 -0.617967 -0.184925
vn -0.225437 -0.968279 -0.107769
vn -0.368112 -0.111048 0.923126
vn -0.715974 0.697351 0.032910
vn 0.725266 -0.650076 -0.226697
vn 0.331871 -0.851643 -0.405666
vn 0.999880 -0.015327 -0.002176
vn 0.943221 -0.278674 -0.180764
vn 0.591011 0.806287 0.024652
vn -0.495078 -0.794447 -0.351783
vn -0.965684 0.138484 -0.219719
vn -0.619205 0.777443 -0.110309
vn -0.212808 0.976781 0.024741
vn 0.812658 0.559168 -0.164065
vn -0.939240 0.171711 -0.297225
vn 0.436033 0.810600 -0.390900
vn 0.926879 -0.137740 -0.349175
vn -0.047409 -0.197368 0.979183
vn -0.039217 -0.000292 0.999231
vn 0.094803 -0.362770 0.927044
vn -0.018975 -0.179712 0.983536
vn -0.020023 -0.178837 0.983675
vn -0.021340 -0.179378 0.983549
vn -0.021690 -0.179425 0.983532
vn -0.019899 -0.178930 0.983661
vn -0.016014 -0.178803 0.983755
vn 0.111321 -0.291465 0.950082
s 1
g YELLOW_TAIL
usemtl Kiichan:KiiChan
f 1/1/1 3/5/2 14/23/3
f 4/6/4 1/2/1 14/22/3
f 16/25/5 10/15/6 27/45/7
f 10/15/6 16/25/5 3/5/2
f 2/3/8 13/21/9 27/44/7
f 10/15/6 2/4/8 27/45/7
f 5/8/10 3/5/2 1/1/1
f 6/9/11 1/1/1 4/7/4
f 5/8/10 1/1/1 6/9/11
f 7/11/12 4/6/4 15/24/13
f 8/13/14 15/24/13 13/21/9
f 7/11/12 6/10/11 4/6/4
f 2/3/8 8/13/14 13/21/9
f 10/15/6 8/12/14 2/4/8
f 11/17/15 6/10/11 7/11/12
f 10/15/6 3/5/2 5/8/10
f 11/18/15 5/8/10 6/9/11
f 8/13/14 12/20/16 15/24/13
f 10/15/6 9/16/17 8/12/14
f 12/20/16 7/11/12 15/24/13
f 8/13/14 9/14/17 12/20/16
f 7/11/12 12/20/16 11/17/15
f 12/19/16 5/8/10 11/18/15
f 12/19/16 9/16/17 10/15/6
f 5/8/10 12/19/16 10/15/6
f 4/6/4 14/22/3 15/24/13
f 15/24/13 27/44/7 13/21/9
f 3/5/2 17/26/18 14/23/3
f 14/22/3 17/27/18 24/39/19
f 14/22/3 24/39/19 15/24/13
f 15/24/13 24/39/19 27/44/7
f 17/26/18 26/42/20 18/28/21
f 26/42/20 19/30/22 18/28/21
f 19/30/22 26/42/20 20/32/23
f 17/27/18 18/29/21 24/39/19
f 21/34/24 20/32/23 26/42/20
f 19/31/22 24/39/19 18/29/21
f 20/33/23 24/39/19 19/31/22
f 21/35/24 24/39/19 20/33/23
f 21/35/24 22/37/25 24/39/19
f 26/42/20 23/38/26 22/36/25
f 22/36/25 21/34/24 26/42/20
f 22/37/25 23/40/26 24/39/19
f 23/38/26 26/42/20 25/41/27
f 23/40/26 25/43/27 24/39/19
f 3/5/2 26/42/20 17/26/18
f 25/43/27 27/44/7 24/39/19
f 27/45/7 25/41/27 16/25/5
f 25/41/27 26/42/20 16/25/5
f 26/42/20 3/5/2 16/25/5
