# This file uses centimeters as units for non-parametric coordinates.

mtllib Kiichan_body.mtl
g default
v 0.322293 0.105119 0.487778
v 0.348322 0.444065 -0.396063
v -0.355208 -0.577511 -0.448343
v -0.449745 0.361208 -0.026544
v -0.512887 -0.549957 0.199211
v 0.242877 0.751203 -0.073616
v -0.180040 0.782408 -0.077569
v -0.163000 -0.736150 0.389795
v -0.213237 0.191922 0.533949
v -0.034215 0.437193 0.503908
v -0.289649 -0.233312 0.560888
v -0.196382 -0.588523 0.521208
v 0.110371 -0.059503 0.652023
v 0.362549 -0.204387 -0.545748
v -0.104405 0.073433 -0.643855
v 0.511239 -0.239300 0.333063
v 0.542190 -0.617067 0.061488
v 0.552413 -0.163392 -0.313733
v -0.378294 0.136586 -0.461653
v -0.585192 -0.284193 -0.190023
v -0.496483 -0.666148 -0.015304
v -0.039208 0.836853 -0.083830
v 0.505972 -0.668438 0.053560
v -0.051779 -0.787717 0.337064
v -0.200411 -0.820494 0.106601
v -0.267243 -0.694085 -0.396997
v -0.228170 0.542369 0.319604
v -0.515375 -0.150861 0.271048
v -0.415337 -0.385063 0.429366
v 0.010021 0.123180 0.632285
v 0.062472 -0.327859 0.660965
v 0.216424 -0.588523 0.521208
v 0.140081 0.424696 0.484856
v 0.248212 0.542369 0.319604
v 0.175069 0.597565 -0.505672
v 0.078754 -0.633942 -0.531244
v -0.053970 -0.212085 -0.658534
v 0.010021 0.512710 -0.589543
v 0.526645 0.165163 0.052891
v 0.384371 0.559915 0.010120
v 0.310182 -0.384859 0.546009
v 0.605709 -0.412293 0.079498
v 0.579103 -0.037498 0.069933
v 0.608148 -0.235360 0.080202
v 0.471582 -0.670378 -0.228266
v 0.593927 -0.447220 -0.192889
v 0.263301 -0.502276 -0.554786
v 0.551687 0.092981 -0.136374
v 0.385349 0.570366 -0.048161
v -0.269999 0.650057 -0.325996
v -0.300114 0.671776 -0.062664
v -0.342499 -0.204370 -0.545755
v -0.492480 -0.452943 -0.365218
v -0.451540 -0.670378 -0.228266
v -0.562096 -0.554332 0.001179
v -0.596110 -0.407542 0.011260
v -0.531646 0.092983 -0.136364
v -0.584906 -0.130016 0.007703
v -0.485930 -0.668438 0.053560
v -0.540181 0.074319 -0.004833
v -0.342266 0.507965 0.179143
v 0.290041 0.650057 -0.325996
v -0.033710 0.750535 -0.434465
v 0.059250 0.836853 -0.083830
v -0.124205 0.688727 0.242226
v 0.104785 0.772352 0.120528
v 0.490761 -0.665448 0.121264
v 0.286260 -0.699875 0.370495
v 0.081766 -0.842420 0.107173
v 0.345094 -0.776330 0.108465
v 0.448514 -0.708872 0.115484
v -0.442693 -0.712290 0.045885
v -0.336616 -0.779949 0.033345
v -0.061724 -0.842420 0.107173
v 0.084531 -0.757055 -0.371812
v -0.208137 -0.823795 0.025813
v 0.163202 -0.822080 -0.142767
vt 0.222629 0.756047
vt 0.213314 0.879518
vt 0.252386 0.809891
vt 0.267695 0.762339
vt 0.267755 0.878322
vt 0.252295 0.909876
vt 0.303657 0.928995
vt 0.295416 0.807116
vt 0.331151 0.872195
vt 0.373338 0.903465
vt 0.348343 0.786770
vt 0.322708 0.828490
vt 0.298307 0.751740
vt 0.311040 0.720907
vt 0.238381 0.392056
vt 0.272423 0.367085
vt 0.255826 0.499043
vt 0.313677 0.566957
vt 0.331945 0.447950
vt 0.328375 0.494546
vt 0.388421 0.553015
vt 0.305552 0.379481
vt 0.394996 0.744475
vt 0.414352 0.776247
vt 0.170907 0.434635
vt 0.345938 0.689993
vt 0.192397 0.363625
vt 0.346321 0.683101
vt 0.403071 0.825007
vt 0.374982 0.865083
vt 0.439144 0.843326
vt 0.441748 0.888146
vt 0.441557 0.900025
vt 0.202791 0.588839
vt 0.179255 0.547127
vt 0.429699 0.810102
vt 0.166439 0.472877
vt 0.169392 0.511689
vt 0.237530 0.586046
vt 0.212303 0.495455
vt 0.206192 0.546459
vt 0.279556 0.546819
vt 0.191332 0.450216
vt 0.199622 0.363342
vt 0.382848 0.431319
vt 0.446473 0.428912
vt 0.427445 0.378770
vt 0.364794 0.345689
vt 0.392561 0.326785
vt 0.435909 0.498870
vt 0.379000 0.488920
vt 0.412756 0.530143
vt 0.431690 0.583706
vt 0.411541 0.575724
vt 0.445393 0.556960
vt 0.453926 0.524656
vt 0.430965 0.429886
vt 0.455374 0.467140
vt 0.179943 0.880981
vt 0.197205 0.929115
vt 0.212707 0.953888
vt 0.231327 0.973688
vt 0.239544 0.970968
vt 0.235250 0.945522
vt 0.176745 0.732262
vt 0.166337 0.793211
vt 0.171451 0.844817
vt 0.196526 0.765890
vt 0.287155 0.302469
vt 0.241989 0.355919
vt 0.229559 0.326473
vt 0.361790 0.307703
vt 0.311491 0.337569
vt 0.318677 0.301723
vt 0.256393 0.669879
vt 0.198152 0.703462
vt 0.231376 0.680550
vt 0.232153 0.724855
vt 0.306076 0.665393
vt 0.272363 0.688193
vt 0.434129 0.901773
vt 0.394889 0.919739
vt 0.420210 0.938486
vt 0.376000 0.977680
vt 0.308680 0.652443
vt 0.246398 0.633126
vt 0.431016 0.914371
vt 0.221237 0.615328
vt 0.212751 0.599875
vt 0.212180 0.607865
vt 0.317216 0.955341
vt 0.340971 0.960566
vt 0.312764 0.990547
vt 0.250938 0.978839
vt 0.433561 0.591989
vt 0.424205 0.602587
vt 0.277509 0.991504
vt 0.401455 0.622211
vt 0.344893 0.988322
vt 0.371629 0.646049
vt 0.307783 0.999022
vt 0.342156 0.653127
vt 0.313202 0.594985
vt 0.373818 0.636112
vt 0.375034 0.577029
vt 0.297128 0.623720
vn -0.649824 0.269880 0.710559
vn -0.141280 0.558572 0.817336
vn -0.671704 0.452002 0.586948
vn -0.869058 0.161656 0.467553
vn -0.529887 0.022675 0.847765
vn -0.114020 0.196332 0.973886
vn 0.365267 0.501249 0.784430
vn -0.752344 -0.195390 0.629127
vn -0.335529 -0.479389 0.810929
vn -0.333823 -0.746672 0.575364
vn 0.339915 -0.547327 0.764781
vn -0.040647 -0.173032 0.984077
vn 0.396556 0.117112 0.910510
vn 0.658331 -0.165831 0.734235
vn 0.832497 0.042680 0.552383
vn 0.718834 0.244056 0.650933
vn 0.262113 0.840261 0.474614
vn 0.701129 0.485939 0.521806
vn 0.782247 0.254148 -0.568769
vn 0.527139 0.017747 -0.849594
vn 0.468288 0.356794 -0.808334
vn -0.076297 0.255668 -0.963749
vn 0.029902 -0.076336 -0.996634
vn -0.328530 0.149396 -0.932603
vn -0.101704 0.812362 -0.574216
vn -0.037951 -0.488832 -0.871552
vn 0.449341 -0.351415 -0.821341
vn -0.409085 -0.377432 -0.830779
vn -0.620762 -0.028934 -0.783465
vn -0.751357 0.229569 -0.618677
vn -0.714840 0.470020 -0.517769
vn 0.887211 0.307198 0.344218
vn 0.948463 0.213010 0.234618
vn 0.946360 0.244642 -0.211074
vn 0.815478 0.469039 0.339114
vn 0.900544 0.412139 -0.138428
vn 0.918817 -0.221261 0.326830
vn 0.782977 -0.341046 0.520226
vn 0.914903 -0.401602 0.040853
vn 0.628157 -0.776423 -0.050848
vn 0.620623 -0.651870 -0.435767
vn 0.906695 -0.194231 -0.374405
vn 0.993550 0.078190 0.082123
vn 0.883925 0.092850 -0.458318
vn 0.711330 0.624640 -0.322233
vn -0.919530 0.250843 -0.302560
vn -0.929067 0.369568 -0.015947
vn -0.931465 0.275237 0.237945
vn -0.772861 0.630746 0.069615
vn -0.938262 -0.000643 -0.345924
vn -0.836802 -0.161693 -0.523086
vn -0.636366 -0.723364 -0.267925
vn -0.988769 -0.129730 0.074198
vn -0.636127 -0.765058 -0.100147
vn -0.949281 -0.306562 -0.069894
vn -0.986503 0.127671 0.102526
vn -0.796998 -0.394066 0.457719
vn -0.782171 -0.566368 0.259683
vn -0.827215 0.397270 0.397356
vn 0.292503 0.946432 -0.136779
vn 0.622505 0.779771 0.066674
vn -0.498505 0.863076 -0.081193
vn -0.300629 0.950415 0.079587
vn -0.279614 0.800757 0.529721
vn 0.364541 -0.772375 0.520142
vn 0.041431 -0.882280 0.468898
vn 0.362535 -0.925864 0.106505
vn 0.123381 -0.985918 0.112882
vn -0.064298 -0.989769 0.127371
vn -0.204365 -0.960295 -0.189915
vn 0.166616 -0.964360 -0.205545
vn 0.567491 -0.769496 0.292969
vn -0.564547 -0.746654 0.351845
vn -0.366755 -0.890366 0.269703
vn -0.432861 -0.889795 -0.144559
vn -0.251211 -0.856169 -0.451517
vn 0.092670 -0.889427 -0.447585
s 1
g YELLOW_BODY
usemtl Kiichan:KiiChan
f 9/3/1 10/4/2 27/1/3
f 28/2/4 9/3/1 27/1/3
f 11/5/5 9/3/1 28/2/4
f 11/5/5 30/8/6 9/3/1
f 9/3/1 30/8/6 10/4/2
f 30/8/6 33/13/7 10/4/2
f 29/6/8 12/7/9 11/5/5
f 8/91/10 32/10/11 12/7/9
f 12/7/9 31/9/12 11/5/5
f 31/9/12 30/8/6 11/5/5
f 31/9/12 13/12/13 30/8/6
f 12/7/9 32/10/11 31/9/12
f 32/10/11 41/30/14 31/9/12
f 31/9/12 41/30/14 13/12/13
f 16/29/15 1/11/16 41/30/14
f 33/13/7 66/80/17 10/4/2
f 33/13/7 34/14/18 66/80/17
f 13/12/13 33/13/7 30/8/6
f 13/12/13 1/11/16 33/13/7
f 41/30/14 1/11/16 13/12/13
f 1/11/16 34/14/18 33/13/7
f 2/15/19 14/17/20 35/16/21
f 14/17/20 38/22/22 35/16/21
f 37/20/23 15/19/24 38/22/22
f 35/16/21 38/22/22 63/73/25
f 36/18/26 37/20/23 47/42/27
f 47/42/27 37/20/23 14/17/20
f 14/17/20 37/20/23 38/22/22
f 3/21/28 37/20/23 36/18/26
f 3/21/28 52/51/29 37/20/23
f 37/20/23 52/51/29 15/19/24
f 15/19/24 19/45/30 38/22/22
f 52/51/29 19/45/30 15/19/24
f 19/45/30 50/48/31 38/22/22
f 1/11/16 16/29/15 34/14/18
f 34/14/18 16/29/15 39/23/32
f 16/29/15 43/24/33 39/23/32
f 39/25/32 43/37/33 48/43/34
f 34/14/18 39/23/32 40/26/35
f 39/25/32 49/44/36 40/27/35
f 42/31/37 16/29/15 41/30/14
f 67/81/38 41/30/14 32/10/11
f 67/81/38 42/31/37 41/30/14
f 67/81/38 17/32/39 42/31/37
f 23/33/40 17/32/39 67/81/38
f 23/89/40 45/39/41 17/34/39
f 42/35/37 17/34/39 46/41/42
f 42/31/37 44/36/43 16/29/15
f 42/35/37 46/41/42 44/38/43
f 16/29/15 44/36/43 43/24/33
f 43/37/33 44/38/43 48/43/34
f 44/38/43 46/41/42 18/40/44
f 44/38/43 18/40/44 48/43/34
f 17/34/39 45/39/41 46/41/42
f 45/39/41 47/42/27 46/41/42
f 46/41/42 14/17/20 18/40/44
f 46/41/42 47/42/27 14/17/20
f 48/43/34 18/40/44 2/15/19
f 18/40/44 14/17/20 2/15/19
f 49/44/36 48/43/34 62/70/45
f 39/25/32 48/43/34 49/44/36
f 48/43/34 2/15/19 62/70/45
f 19/45/30 57/57/46 50/48/31
f 57/57/46 4/47/47 50/48/31
f 60/46/48 4/47/47 57/57/46
f 4/47/47 51/49/49 50/48/31
f 20/50/50 19/45/30 52/51/29
f 20/50/50 57/57/46 19/45/30
f 53/52/51 52/51/29 3/21/28
f 53/52/51 20/50/50 52/51/29
f 54/54/52 53/52/51 3/21/28
f 54/54/52 20/50/50 53/52/51
f 54/54/52 56/56/53 20/50/50
f 54/54/52 21/53/54 55/55/55
f 55/55/55 56/56/53 54/54/52
f 56/56/53 58/58/56 20/50/50
f 58/58/56 57/57/46 20/50/50
f 58/58/56 60/46/48 57/57/46
f 56/60/53 28/2/4 58/59/56
f 5/64/57 28/2/4 56/60/53
f 55/61/55 5/64/57 56/60/53
f 21/62/54 59/63/58 55/61/55
f 55/61/55 59/63/58 5/64/57
f 5/64/57 12/7/9 29/6/8
f 5/64/57 29/6/8 28/2/4
f 28/2/4 29/6/8 11/5/5
f 4/66/47 61/68/59 51/65/49
f 60/67/48 61/68/59 4/66/47
f 28/2/4 60/67/48 58/59/56
f 28/2/4 61/68/59 60/67/48
f 28/2/4 27/1/3 61/68/59
f 2/15/19 35/16/21 62/70/45
f 35/16/21 63/73/25 62/70/45
f 63/73/25 64/69/60 62/70/45
f 62/70/45 64/69/60 6/71/61
f 62/70/45 6/71/61 49/44/36
f 38/22/22 50/48/31 63/73/25
f 7/72/62 63/73/25 50/48/31
f 51/49/49 7/72/62 50/48/31
f 63/73/25 22/74/63 64/69/60
f 7/72/62 22/74/63 63/73/25
f 51/65/49 65/78/64 22/77/63
f 51/65/49 22/77/63 7/76/62
f 27/1/3 65/78/64 51/65/49
f 61/68/59 27/1/3 51/65/49
f 27/1/3 10/4/2 65/78/64
f 10/4/2 66/80/17 65/78/64
f 49/28/36 6/79/61 40/26/35
f 40/26/35 6/79/61 34/14/18
f 64/75/60 66/80/17 6/79/61
f 64/75/60 22/77/63 66/80/17
f 22/77/63 65/78/64 66/80/17
f 66/80/17 34/14/18 6/79/61
f 32/10/11 68/82/65 67/81/38
f 32/10/11 8/91/10 68/82/65
f 8/91/10 24/92/66 68/82/65
f 68/82/65 24/92/66 70/83/67
f 24/92/66 69/84/68 70/83/67
f 24/92/66 74/99/69 69/84/68
f 69/85/68 76/104/70 77/106/71
f 69/85/68 77/106/71 70/86/67
f 68/82/65 71/87/72 67/81/38
f 68/82/65 70/83/67 71/87/72
f 71/88/72 70/86/67 23/89/40
f 67/90/38 71/88/72 23/89/40
f 5/64/57 8/91/10 12/7/9
f 5/64/57 72/94/73 8/91/10
f 72/94/73 25/93/74 8/91/10
f 59/63/58 72/94/73 5/64/57
f 59/95/58 21/53/54 72/96/73
f 72/94/73 73/97/75 25/93/74
f 21/53/54 73/98/75 72/96/73
f 25/93/74 74/99/69 24/92/66
f 8/91/10 25/93/74 24/92/66
f 73/97/75 76/101/70 25/93/74
f 76/104/70 69/85/68 74/102/69
f 25/100/74 76/104/70 74/102/69
f 76/104/70 26/105/76 75/103/77
f 73/98/75 21/53/54 76/104/70
f 21/53/54 54/54/52 76/104/70
f 76/104/70 54/54/52 26/105/76
f 54/54/52 3/21/28 26/105/76
f 26/105/76 3/21/28 36/18/26
f 45/39/41 23/89/40 70/86/67
f 77/106/71 45/39/41 70/86/67
f 75/103/77 77/106/71 76/104/70
f 75/103/77 45/39/41 77/106/71
f 26/105/76 36/18/26 75/103/77
f 36/18/26 47/42/27 75/103/77
f 75/103/77 47/42/27 45/39/41
