# This file uses centimeters as units for non-parametric coordinates.

mtllib green_tail.mtl
g default
v 0.000000 -0.340964 0.008845
v 0.056680 -0.335099 0.008709
v 0.111182 -0.317729 0.008306
v 0.161412 -0.289522 0.007651
v 0.205438 -0.251562 0.006770
v 0.241570 -0.205306 0.005697
v 0.268418 -0.152534 0.004473
v 0.284951 -0.095273 0.003144
v 0.290534 -0.035724 0.001762
v 0.284951 0.023825 0.000380
v 0.268418 0.081086 -0.000948
v 0.241570 0.133858 -0.002173
v 0.205438 0.180113 -0.003246
v 0.161412 0.218074 -0.004127
v 0.111182 0.246281 -0.004781
v 0.056680 0.263651 -0.005185
v 0.000000 0.269516 -0.005321
v -0.056680 0.263651 -0.005185
v -0.111182 0.246281 -0.004781
v -0.161412 0.218074 -0.004127
v -0.205438 0.180113 -0.003246
v -0.241570 0.133858 -0.002173
v -0.268418 0.081086 -0.000948
v -0.284951 0.023825 0.000380
v -0.290534 -0.035724 0.001762
v -0.284951 -0.095273 0.003144
v -0.268418 -0.152534 0.004473
v -0.241570 -0.205306 0.005697
v -0.205438 -0.251562 0.006770
v -0.161412 -0.289522 0.007651
v -0.111182 -0.317729 0.008306
v -0.056680 -0.335099 0.008709
v 0.000000 0.202004 -1.675179
v 0.000000 -0.035724 0.001762
vt 0.250000 0.947576
vt 0.250000 0.742392
vt 0.290030 0.943633
vt 0.328520 0.931957
vt 0.363994 0.912997
vt 0.395087 0.887479
vt 0.420605 0.856386
vt 0.439565 0.820913
vt 0.451241 0.782422
vt 0.455184 0.742392
vt 0.451241 0.702362
vt 0.439565 0.663872
vt 0.420605 0.628398
vt 0.395087 0.597305
vt 0.363994 0.571788
vt 0.328520 0.552827
vt 0.290030 0.541151
vt 0.250000 0.537208
vt 0.209970 0.541151
vt 0.171479 0.552827
vt 0.136006 0.571788
vt 0.104913 0.597305
vt 0.079395 0.628398
vt 0.060435 0.663872
vt 0.048759 0.702362
vt 0.044816 0.742392
vt 0.048759 0.782422
vt 0.060435 0.820913
vt 0.079395 0.856386
vt 0.104913 0.887479
vt 0.136006 0.912997
vt 0.171479 0.931957
vt 0.796822 0.014612
vt 0.514612 0.203178
vt 0.703178 0.485388
vt 0.209970 0.943633
vt 0.750000 0.490000
vt 0.796822 0.485388
vt 0.841844 0.471731
vt 0.883337 0.449553
vt 0.919706 0.419706
vt 0.949553 0.383337
vt 0.971731 0.341844
vt 0.985388 0.296822
vt 0.990000 0.250000
vt 0.985388 0.203178
vt 0.971731 0.158156
vt 0.949553 0.116663
vt 0.919706 0.080294
vt 0.883337 0.050447
vt 0.841844 0.028269
vt 0.750000 0.010000
vt 0.703178 0.014612
vt 0.658156 0.028269
vt 0.616663 0.050447
vt 0.580294 0.080294
vt 0.550447 0.116663
vt 0.528269 0.158156
vt 0.510000 0.250000
vt 0.514612 0.296822
vt 0.528269 0.341844
vt 0.550447 0.383337
vt 0.580294 0.419706
vt 0.616663 0.449553
vt 0.658156 0.471731
vt 0.750000 0.250000
vn 0.097304 -0.947236 -0.305412
vn 0.097304 -0.947236 -0.305412
vn 0.097304 -0.947236 -0.305412
vn 0.287697 -0.909589 -0.299796
vn 0.287697 -0.909589 -0.299796
vn 0.287697 -0.909589 -0.299796
vn 0.465904 -0.836308 -0.289003
vn 0.465904 -0.836308 -0.289003
vn 0.465904 -0.836308 -0.289003
vn 0.624975 -0.731171 -0.273489
vn 0.624975 -0.731171 -0.273489
vn 0.624975 -0.731171 -0.273489
vn 0.759298 -0.598998 -0.254299
vn 0.759298 -0.598998 -0.254299
vn 0.759298 -0.598998 -0.254299
vn 0.864737 -0.445319 -0.232210
vn 0.864737 -0.445319 -0.232210
vn 0.864737 -0.445319 -0.232210
vn 0.938397 -0.275799 -0.208199
vn 0.938397 -0.275799 -0.208199
vn 0.938397 -0.275799 -0.208199
vn 0.978396 -0.096000 -0.183099
vn 0.978396 -0.096000 -0.183099
vn 0.978396 -0.096000 -0.183099
vn 0.983497 0.088500 -0.157800
vn 0.983497 0.088500 -0.157800
vn 0.983497 0.088500 -0.157800
vn 0.953018 0.272105 -0.133102
vn 0.953018 0.272105 -0.133102
vn 0.953018 0.272105 -0.133102
vn 0.886909 0.448705 -0.109801
vn 0.886909 0.448705 -0.109801
vn 0.886909 0.448705 -0.109801
vn 0.785973 0.611879 -0.088597
vn 0.785973 0.611879 -0.088597
vn 0.785973 0.611879 -0.088597
vn 0.652190 0.754789 -0.070299
vn 0.652190 0.754789 -0.070299
vn 0.652190 0.754789 -0.070299
vn 0.489394 0.870289 -0.055599
vn 0.489394 0.870289 -0.055599
vn 0.489394 0.870289 -0.055599
vn 0.303605 0.951716 -0.045401
vn 0.303605 0.951716 -0.045401
vn 0.303605 0.951716 -0.045401
vn 0.102898 0.993879 -0.040199
vn 0.102898 0.993879 -0.040199
vn 0.102898 0.993879 -0.040199
vn -0.102898 0.993879 -0.040199
vn -0.102898 0.993879 -0.040199
vn -0.102898 0.993879 -0.040199
vn -0.303605 0.951716 -0.045401
vn -0.303605 0.951716 -0.045401
vn -0.303605 0.951716 -0.045401
vn -0.489394 0.870289 -0.055599
vn -0.489394 0.870289 -0.055599
vn -0.489394 0.870289 -0.055599
vn -0.652190 0.754789 -0.070299
vn -0.652190 0.754789 -0.070299
vn -0.652190 0.754789 -0.070299
vn -0.785973 0.611879 -0.088597
vn -0.785973 0.611879 -0.088597
vn -0.785973 0.611879 -0.088597
vn -0.886909 0.448705 -0.109801
vn -0.886909 0.448705 -0.109801
vn -0.886909 0.448705 -0.109801
vn -0.953018 0.272105 -0.133102
vn -0.953018 0.272105 -0.133102
vn -0.953018 0.272105 -0.133102
vn -0.983497 0.088500 -0.157800
vn -0.983497 0.088500 -0.157800
vn -0.983497 0.088500 -0.157800
vn -0.978396 -0.096000 -0.183099
vn -0.978396 -0.096000 -0.183099
vn -0.978396 -0.096000 -0.183099
vn -0.938397 -0.275799 -0.208199
vn -0.938397 -0.275799 -0.208199
vn -0.938397 -0.275799 -0.208199
vn -0.864737 -0.445319 -0.232210
vn -0.864737 -0.445319 -0.232210
vn -0.864737 -0.445319 -0.232210
vn -0.759298 -0.598998 -0.254299
vn -0.759298 -0.598998 -0.254299
vn -0.759298 -0.598998 -0.254299
vn -0.624975 -0.731171 -0.273489
vn -0.624975 -0.731171 -0.273489
vn -0.624975 -0.731171 -0.273489
vn -0.465904 -0.836308 -0.289003
vn -0.465904 -0.836308 -0.289003
vn -0.465904 -0.836308 -0.289003
vn 0.000000 0.023201 0.999731
vn 0.000000 0.023201 0.999731
vn 0.000000 0.023201 0.999731
vn -0.000001 0.023199 0.999731
vn -0.287697 -0.909589 -0.299796
vn -0.287697 -0.909589 -0.299796
vn -0.287697 -0.909589 -0.299796
vn -0.097304 -0.947236 -0.305412
vn -0.097304 -0.947236 -0.305412
vn -0.097304 -0.947236 -0.305412
vn 0.000000 0.023201 0.999731
vn 0.000000 0.023201 0.999731
vn 0.000000 0.023201 0.999731
vn 0.000000 0.023201 0.999731
vn 0.000000 0.023201 0.999731
vn 0.000000 0.023201 0.999731
vn 0.000000 0.023201 0.999731
vn 0.000000 0.023201 0.999731
vn 0.000000 0.023201 0.999731
vn 0.000000 0.023201 0.999731
vn 0.000000 0.023201 0.999731
vn 0.000000 0.023201 0.999731
vn 0.000000 0.023201 0.999731
vn 0.000000 0.023201 0.999731
vn 0.000000 0.023201 0.999731
vn 0.000000 0.023201 0.999731
vn 0.000000 0.023201 0.999731
vn 0.000000 0.023201 0.999731
vn 0.000000 0.023201 0.999731
vn 0.000000 0.023201 0.999731
vn 0.000000 0.023201 0.999731
vn 0.000000 0.023201 0.999731
vn 0.000000 0.023201 0.999731
vn 0.000000 0.023201 0.999731
vn 0.000000 0.023201 0.999731
vn 0.000000 0.023201 0.999731
vn 0.000000 0.023201 0.999731
vn 0.000000 0.023201 0.999731
vn 0.000000 0.023201 0.999731
vn 0.000000 0.023201 0.999731
vn 0.000000 0.023201 0.999731
vn 0.000000 0.023201 0.999731
vn 0.000000 0.023201 0.999731
vn 0.000000 0.023201 0.999731
vn 0.000000 0.023201 0.999731
vn 0.000000 0.023201 0.999731
vn 0.000000 0.023201 0.999731
vn 0.000000 0.023201 0.999731
vn 0.000000 0.023201 0.999731
vn 0.000000 0.023201 0.999731
vn 0.000000 0.023201 0.999731
vn 0.000000 0.023201 0.999731
vn 0.000000 0.023201 0.999731
vn 0.000000 0.023201 0.999731
vn 0.000000 0.023201 0.999731
vn 0.000000 0.023201 0.999731
vn 0.000000 0.023201 0.999731
vn 0.000000 0.023201 0.999731
vn 0.000000 0.023201 0.999731
vn 0.000000 0.023201 0.999731
vn 0.000000 0.023201 0.999731
vn 0.000000 0.023201 0.999731
vn 0.000000 0.023201 0.999731
vn 0.000000 0.023201 0.999731
vn 0.000000 0.023201 0.999731
vn 0.000000 0.023201 0.999731
vn 0.000000 0.023201 0.999731
vn 0.000000 0.023201 0.999731
vn 0.000000 0.023201 0.999731
vn 0.000000 0.023201 0.999731
vn 0.000000 0.023201 0.999731
vn 0.000000 0.023201 0.999731
vn 0.000000 0.023201 0.999731
vn 0.000000 0.023201 0.999731
vn 0.000000 0.023201 0.999731
vn 0.000000 0.023201 0.999731
vn 0.000000 0.023201 0.999731
vn 0.000000 0.023201 0.999731
vn 0.000000 0.023201 0.999731
vn 0.000000 0.023201 0.999731
vn 0.000000 0.023201 0.999731
vn 0.000000 0.023201 0.999731
vn 0.000000 0.023201 0.999731
vn 0.000000 0.023201 0.999731
vn 0.000000 0.023201 0.999731
vn 0.000000 0.023201 0.999731
vn 0.000000 0.023201 0.999731
vn 0.000000 0.023201 0.999731
vn 0.000000 0.023201 0.999731
vn 0.000000 0.023201 0.999731
vn 0.000000 0.023201 0.999731
vn 0.000000 0.023201 0.999731
vn 0.000000 0.023201 0.999731
vn 0.000000 0.023201 0.999731
vn 0.000000 0.023201 0.999731
vn 0.000000 0.023201 0.999731
vn 0.000000 0.023201 0.999731
vn -0.000000 0.023199 0.999731
s off
g polySurface11 polySurface10 group1_pCube2
usemtl blue_01:lambert2SG
f 1/1/1 33/2/2 2/3/3
f 2/3/4 33/2/5 3/4/6
f 3/4/7 33/2/8 4/5/9
f 4/5/10 33/2/11 5/6/12
f 5/6/13 33/2/14 6/7/15
f 6/7/16 33/2/17 7/8/18
f 7/8/19 33/2/20 8/9/21
f 8/9/22 33/2/23 9/10/24
f 9/10/25 33/2/26 10/11/27
f 10/11/28 33/2/29 11/12/30
f 11/12/31 33/2/32 12/13/33
f 12/13/34 33/2/35 13/14/36
f 13/14/37 33/2/38 14/15/39
f 14/15/40 33/2/41 15/16/42
f 15/16/43 33/2/44 16/17/45
f 16/17/46 33/2/47 17/18/48
f 17/18/49 33/2/50 18/19/51
f 18/19/52 33/2/53 19/20/54
f 19/20/55 33/2/56 20/21/57
f 20/21/58 33/2/59 21/22/60
f 21/22/61 33/2/62 22/23/63
f 22/23/64 33/2/65 23/24/66
f 23/24/67 33/2/68 24/25/69
f 24/25/70 33/2/71 25/26/72
f 25/26/73 33/2/74 26/27/75
f 26/27/76 33/2/77 27/28/78
f 27/28/79 33/2/80 28/29/81
f 28/29/82 33/2/83 29/30/84
f 29/30/85 33/2/86 30/31/87
f 30/31/88 33/2/89 31/32/90
f 16/33/91 24/34/92 32/35/93 34/66/94
f 31/32/95 33/2/96 32/36/97
f 32/36/98 33/2/99 1/1/100
f 32/35/101 1/37/102 2/38/103
f 2/38/104 3/39/105 4/40/106
f 4/40/107 5/41/108 6/42/109
f 6/42/110 7/43/111 8/44/112
f 8/44/113 9/45/114 10/46/115
f 10/46/116 11/47/117 12/48/118
f 12/48/119 13/49/120 14/50/121
f 14/50/122 15/51/123 16/33/124
f 16/33/125 17/52/126 18/53/127
f 18/53/128 19/54/129 20/55/130
f 20/55/131 21/56/132 22/57/133
f 22/57/134 23/58/135 24/34/136
f 24/34/137 25/59/138 26/60/139
f 26/60/140 27/61/141 28/62/142
f 28/62/143 29/63/144 30/64/145
f 30/64/146 31/65/147 32/35/148
f 32/35/149 2/38/150 4/40/151
f 4/40/152 6/42/153 8/44/154
f 8/44/155 10/46/156 12/48/157
f 12/48/158 14/50/159 16/33/160
f 16/33/161 18/53/162 20/55/163
f 20/55/164 22/57/165 24/34/166
f 24/34/167 26/60/168 28/62/169
f 28/62/170 30/64/171 32/35/172
f 32/35/173 4/40/174 8/44/175
f 8/44/176 12/48/177 16/33/178
f 16/33/179 20/55/180 24/34/181
f 24/34/182 28/62/183 32/35/184
f 32/35/185 8/44/186 16/33/187 34/66/188
