# This file uses centimeters as units for non-parametric coordinates.

mtllib akamaru_body.mtl
g default
v -0.251181 0.656087 0.240023
v 0.000000 -0.747469 0.354056
v 0.338303 -0.658082 0.322493
v -0.365229 -0.534807 -0.432752
v -0.338303 -0.658082 0.322493
v 0.267384 0.760985 -0.170771
v 0.416243 -0.682333 -0.161020
v -0.404145 0.335009 0.283726
v 0.000000 -0.510632 0.610116
v 0.000000 -0.108635 0.688065
v 0.258387 0.440327 -0.495373
v 0.000000 -0.412511 -0.610084
v 0.000000 0.019245 -0.647309
v -0.355526 -0.381191 -0.505266
v -0.334836 0.012469 -0.531571
v 0.494517 -0.109253 0.345173
v 0.469449 -0.486151 0.330054
v 0.574756 -0.490455 -0.117749
v 0.588398 -0.065800 -0.112885
v 0.365228 -0.534807 -0.432752
v -0.574756 -0.490455 -0.117749
v -0.588395 -0.065785 -0.112886
v -0.494517 -0.109253 0.345173
v -0.469449 -0.486151 0.330055
v -0.045886 0.332096 0.590742
v -0.045605 0.754449 0.266597
v -0.061800 -0.745014 0.352656
v -0.052784 -0.509016 0.607567
v -0.051461 -0.108502 0.684676
v 0.000000 0.757303 0.267884
v 0.000000 0.333411 0.593599
v 0.404145 0.335009 0.283726
v 0.251181 0.656087 0.240023
v 0.234216 0.680538 -0.397817
v 0.000000 0.485293 -0.592239
v 0.000000 0.759540 -0.461939
v 0.334845 0.012459 -0.531566
v 0.355526 -0.381191 -0.505266
v 0.000000 -0.592708 -0.518555
v -0.060280 0.019278 -0.643817
v -0.065917 -0.411261 -0.606863
v -0.068733 -0.591238 -0.515652
v -0.043014 0.757187 -0.459769
v -0.045742 0.483569 -0.589387
v -0.258412 0.440287 -0.495364
v -0.234216 0.680538 -0.397817
v 0.450842 0.416617 -0.131095
v -0.416243 -0.682333 -0.161020
v -0.267384 0.760985 -0.170771
v -0.450855 0.416581 -0.131092
v 0.000000 0.881880 -0.202419
v -0.048091 0.878332 -0.201288
v -0.077167 -0.768285 -0.212080
v 0.000000 -0.770391 -0.213971
vt 0.743826 0.668340
vt 0.802286 0.724565
vt 0.849201 0.662739
vt 0.790516 0.616675
vt 0.373860 0.480082
vt 0.371215 0.486997
vt 0.452306 0.498334
vt 0.454427 0.492527
vt 0.863194 0.573176
vt 0.828838 0.579616
vt 0.527369 0.561300
vt 0.531693 0.557799
vt 0.676523 0.733528
vt 0.660405 0.769777
vt 0.733744 0.765061
vt 0.698863 0.708015
vt 0.661823 0.778442
vt 0.735229 0.769896
vt 0.804141 0.731070
vt 0.291504 0.509082
vt 0.310913 0.578420
vt 0.371668 0.574537
vt 0.234450 0.559313
vt 0.276543 0.577038
vt 0.441353 0.578484
vt 0.494472 0.580104
vt 0.392917 0.722994
vt 0.397301 0.772441
vt 0.476237 0.753047
vt 0.461304 0.714149
vt 0.523659 0.722146
vt 0.498643 0.694705
vt 0.301413 0.710935
vt 0.278817 0.751065
vt 0.316507 0.767528
vt 0.327964 0.721793
vt 0.314714 0.774398
vt 0.396933 0.779535
vt 0.587193 0.566725
vt 0.619860 0.588328
vt 0.664245 0.542019
vt 0.638550 0.508275
vt 0.275228 0.756259
vt 0.572320 0.604331
vt 0.608403 0.615340
vt 0.477971 0.759182
vt 0.526633 0.726760
vt 0.704558 0.467509
vt 0.717382 0.501321
vt 0.756949 0.491359
vt 0.758551 0.460637
vt 0.377351 0.647786
vt 0.452187 0.647420
vt 0.509393 0.653394
vt 0.275116 0.663864
vt 0.312159 0.652387
vt 0.754026 0.557685
vt 0.792458 0.516083
vt 0.701290 0.609751
vt 0.652849 0.652712
vt 0.619832 0.670605
vt 0.549475 0.665936
vt 0.814734 0.490269
vt 0.554928 0.667747
vt 0.226064 0.690660
vt 0.226351 0.561136
vt 0.219433 0.697555
vt 0.577033 0.681552
vn -0.832317 0.077211 0.548897
vn -0.562862 0.050308 0.825019
vn -0.537244 0.301331 0.787762
vn -0.808334 0.326053 0.490190
vn -0.562862 0.050308 0.825019
vn 0.520175 0.046966 0.852767
vn 0.491623 0.303987 0.816026
vn -0.537244 0.301331 0.787762
vn -0.808334 0.326053 0.490190
vn -0.537244 0.301331 0.787762
vn -0.430390 0.728542 0.532909
vn -0.670488 0.590685 0.448929
vn -0.537244 0.301331 0.787762
vn 0.491623 0.303987 0.816026
vn 0.375562 0.747658 0.547686
vn -0.430390 0.728542 0.532909
vn -0.469293 -0.818224 0.332075
vn -0.283387 -0.906356 0.313386
vn -0.497884 -0.268393 0.824668
vn -0.804922 -0.272512 0.527104
vn -0.283387 -0.906356 0.313386
vn 0.239960 -0.921112 0.306549
vn 0.452250 -0.278179 0.847400
vn -0.497884 -0.268393 0.824668
vn -0.804922 -0.272512 0.527104
vn -0.497884 -0.268393 0.824668
vn -0.562862 0.050308 0.825019
vn -0.832317 0.077211 0.548897
vn -0.497884 -0.268393 0.824668
vn 0.452250 -0.278179 0.847400
vn 0.520175 0.046966 0.852767
vn -0.562862 0.050308 0.825019
vn 0.452250 -0.278179 0.847400
vn 0.780228 -0.277337 0.560651
vn 0.808986 0.074738 0.583057
vn 0.520175 0.046966 0.852767
vn 0.239960 -0.921112 0.306549
vn 0.421599 -0.843434 0.332978
vn 0.780228 -0.277337 0.560651
vn 0.452250 -0.278179 0.847400
vn 0.491623 0.303987 0.816026
vn 0.784785 0.328874 0.525314
vn 0.628986 0.616136 0.474081
vn 0.375562 0.747658 0.547686
vn 0.520175 0.046966 0.852767
vn 0.808986 0.074738 0.583057
vn 0.784785 0.328874 0.525314
vn 0.491623 0.303987 0.816026
vn 0.682079 0.084631 -0.726365
vn 0.269698 0.025397 -0.962610
vn 0.295712 0.226877 -0.927945
vn 0.675543 0.245158 -0.695370
vn 0.675543 0.245158 -0.695370
vn 0.295712 0.226877 -0.927945
vn 0.337245 0.669427 -0.661917
vn 0.654811 0.527904 -0.540870
vn 0.464662 -0.645738 -0.605897
vn 0.215542 -0.722656 -0.656742
vn 0.247052 -0.186522 -0.950881
vn 0.648931 -0.126106 -0.750324
vn 0.648931 -0.126106 -0.750324
vn 0.247052 -0.186522 -0.950881
vn 0.269698 0.025397 -0.962610
vn 0.682079 0.084631 -0.726365
vn 0.247052 -0.186522 -0.950881
vn -0.297584 -0.179917 -0.937589
vn -0.323785 0.031857 -0.945594
vn 0.269698 0.025397 -0.962610
vn -0.297584 -0.179917 -0.937589
vn -0.689531 -0.115636 -0.714965
vn -0.719196 0.091083 -0.688811
vn -0.323785 0.031857 -0.945594
vn 0.215542 -0.722656 -0.656742
vn -0.259917 -0.710092 -0.654379
vn -0.297584 -0.179917 -0.937589
vn 0.247052 -0.186522 -0.950881
vn -0.259917 -0.710092 -0.654379
vn -0.516381 -0.617555 -0.593276
vn -0.689531 -0.115636 -0.714965
vn -0.297584 -0.179917 -0.937589
vn 0.295712 0.226877 -0.927945
vn -0.351268 0.229825 -0.907630
vn -0.397803 0.651291 -0.646199
vn 0.337245 0.669427 -0.661917
vn -0.351268 0.229825 -0.907630
vn -0.713810 0.245988 -0.655717
vn -0.697076 0.499180 -0.514688
vn -0.397803 0.651291 -0.646199
vn 0.269698 0.025397 -0.962610
vn -0.323785 0.031857 -0.945594
vn -0.351268 0.229825 -0.907630
vn 0.295712 0.226877 -0.927945
vn -0.323785 0.031857 -0.945594
vn -0.719196 0.091083 -0.688811
vn -0.713810 0.245988 -0.655717
vn -0.351268 0.229825 -0.907630
vn 0.808986 0.074738 0.583057
vn 0.983435 0.111350 -0.143030
vn 0.940641 0.319727 -0.113887
vn 0.784785 0.328874 0.525314
vn 0.784785 0.328874 0.525314
vn 0.940641 0.319727 -0.113887
vn 0.701765 0.712355 -0.008731
vn 0.628986 0.616136 0.474081
vn 0.421599 -0.843434 0.332978
vn 0.465188 -0.874849 -0.135055
vn 0.968716 -0.221682 -0.111560
vn 0.780228 -0.277337 0.560651
vn 0.780228 -0.277337 0.560651
vn 0.968716 -0.221682 -0.111560
vn 0.983435 0.111350 -0.143030
vn 0.808986 0.074738 0.583057
vn 0.465188 -0.874849 -0.135055
vn 0.464662 -0.645738 -0.605897
vn 0.648931 -0.126106 -0.750324
vn 0.968716 -0.221682 -0.111560
vn 0.968716 -0.221682 -0.111560
vn 0.648931 -0.126106 -0.750324
vn 0.682079 0.084631 -0.726365
vn 0.983435 0.111350 -0.143030
vn 0.983435 0.111350 -0.143030
vn 0.682079 0.084631 -0.726365
vn 0.675543 0.245158 -0.695370
vn 0.940641 0.319727 -0.113887
vn 0.940641 0.319727 -0.113887
vn 0.675543 0.245158 -0.695370
vn 0.654811 0.527904 -0.540870
vn 0.701765 0.712355 -0.008731
vn -0.713810 0.245988 -0.655717
vn -0.940643 0.319724 -0.113872
vn -0.742554 0.669662 -0.012899
vn -0.697076 0.499180 -0.514688
vn -0.719196 0.091083 -0.688811
vn -0.983435 0.111345 -0.143029
vn -0.940643 0.319724 -0.113872
vn -0.713810 0.245988 -0.655717
vn -0.689531 -0.115636 -0.714965
vn -0.968718 -0.221675 -0.111564
vn -0.983435 0.111345 -0.143029
vn -0.719196 0.091083 -0.688811
vn -0.516381 -0.617555 -0.593276
vn -0.517936 -0.845937 -0.127015
vn -0.968718 -0.221675 -0.111564
vn -0.689531 -0.115636 -0.714965
vn -0.968718 -0.221675 -0.111564
vn -0.804922 -0.272512 0.527104
vn -0.832317 0.077211 0.548897
vn -0.983435 0.111345 -0.143029
vn -0.517936 -0.845937 -0.127015
vn -0.469293 -0.818224 0.332075
vn -0.804922 -0.272512 0.527104
vn -0.968718 -0.221675 -0.111564
vn -0.940643 0.319724 -0.113872
vn -0.808334 0.326053 0.490190
vn -0.670488 0.590685 0.448929
vn -0.742554 0.669662 -0.012899
vn -0.983435 0.111345 -0.143029
vn -0.832317 0.077211 0.548897
vn -0.808334 0.326053 0.490190
vn -0.940643 0.319724 -0.113872
vn 0.337245 0.669427 -0.661917
vn 0.335792 0.941924 0.004759
vn 0.701765 0.712355 -0.008731
vn 0.654811 0.527904 -0.540870
vn -0.697076 0.499180 -0.514688
vn -0.742554 0.669662 -0.012899
vn -0.397871 0.917438 0.002604
vn -0.397803 0.651291 -0.646199
vn -0.397803 0.651291 -0.646199
vn -0.397871 0.917438 0.002604
vn 0.335792 0.941924 0.004759
vn 0.337245 0.669427 -0.661917
vn -0.742554 0.669662 -0.012899
vn -0.670488 0.590685 0.448929
vn -0.430390 0.728542 0.532909
vn -0.397871 0.917438 0.002604
vn -0.397871 0.917438 0.002604
vn -0.430390 0.728542 0.532909
vn 0.375562 0.747658 0.547686
vn 0.335792 0.941924 0.004759
vn 0.335792 0.941924 0.004759
vn 0.375562 0.747658 0.547686
vn 0.628986 0.616136 0.474081
vn 0.701765 0.712355 -0.008731
vn 0.239960 -0.921112 0.306549
vn 0.197700 -0.963851 -0.178624
vn 0.465188 -0.874849 -0.135055
vn 0.421599 -0.843434 0.332978
vn -0.283387 -0.906356 0.313386
vn -0.239792 -0.954844 -0.175422
vn 0.197700 -0.963851 -0.178624
vn 0.239960 -0.921112 0.306549
vn -0.469293 -0.818224 0.332075
vn -0.517936 -0.845937 -0.127015
vn -0.239792 -0.954844 -0.175422
vn -0.283387 -0.906356 0.313386
vn -0.239792 -0.954844 -0.175422
vn -0.259917 -0.710092 -0.654379
vn 0.215542 -0.722656 -0.656742
vn 0.197700 -0.963851 -0.178624
vn -0.517936 -0.845937 -0.127015
vn -0.516381 -0.617555 -0.593276
vn -0.259917 -0.710092 -0.654379
vn -0.239792 -0.954844 -0.175422
vn 0.197700 -0.963851 -0.178624
vn 0.215542 -0.722656 -0.656742
vn 0.464662 -0.645738 -0.605897
vn 0.465188 -0.874849 -0.135055
s off
g RED_BODY
usemtl akamaru:Low
f 23/1/1 29/2/2 25/3/3 8/4/4
f 29/5/5 10/6/6 31/7/7 25/8/8
f 8/4/9 25/3/10 26/9/11 1/10/12
f 25/8/13 31/7/14 30/11/15 26/12/16
f 5/13/17 27/14/18 28/15/19 24/16/20
f 27/14/21 2/17/22 9/18/23 28/15/24
f 24/16/25 28/15/26 29/2/27 23/1/28
f 28/15/29 9/18/30 10/19/31 29/2/32
f 9/20/33 17/21/34 16/22/35 10/6/36
f 2/23/37 3/24/38 17/21/39 9/20/40
f 31/7/41 32/25/42 33/26/43 30/11/44
f 10/6/45 16/22/46 32/25/47 31/7/48
f 37/27/49 13/28/50 35/29/51 11/30/52
f 11/30/53 35/29/54 36/31/55 34/32/56
f 20/33/57 39/34/58 12/35/59 38/36/60
f 38/36/61 12/35/62 13/28/63 37/27/64
f 12/35/65 41/37/66 40/38/67 13/28/68
f 41/39/69 14/40/70 15/41/71 40/42/72
f 39/34/73 42/43/74 41/37/75 12/35/76
f 42/44/77 4/45/78 14/40/79 41/39/80
f 35/29/81 44/46/82 43/47/83 36/31/84
f 44/48/85 45/49/86 46/50/87 43/51/88
f 13/28/89 40/38/90 44/46/91 35/29/92
f 40/42/93 15/41/94 45/49/95 44/48/96
f 16/22/97 19/52/98 47/53/99 32/25/100
f 32/25/101 47/53/102 6/54/103 33/26/104
f 3/24/105 7/55/106 18/56/107 17/21/108
f 17/21/109 18/56/110 19/52/111 16/22/112
f 7/55/113 20/33/114 38/36/115 18/56/116
f 18/56/117 38/36/118 37/27/119 19/52/120
f 19/52/121 37/27/122 11/30/123 47/53/124
f 47/53/125 11/30/126 34/32/127 6/54/128
f 45/49/129 50/57/130 49/58/131 46/50/132
f 15/41/133 22/59/134 50/57/135 45/49/136
f 14/40/137 21/60/138 22/59/139 15/41/140
f 4/45/141 48/61/142 21/60/143 14/40/144
f 21/60/145 24/16/146 23/1/147 22/59/148
f 48/61/149 5/13/150 24/16/151 21/60/152
f 50/57/153 8/4/154 1/10/155 49/58/156
f 22/59/157 23/1/158 8/4/159 50/57/160
f 36/31/161 51/62/162 6/54/163 34/32/164
f 46/50/165 49/58/166 52/63/167 43/51/168
f 43/47/169 52/64/170 51/62/171 36/31/172
f 49/58/173 1/10/174 26/9/175 52/63/176
f 52/64/177 26/12/178 30/11/179 51/62/180
f 51/62/181 30/11/182 33/26/183 6/54/184
f 2/23/185 54/65/186 7/55/187 3/24/188
f 27/66/189 53/67/190 54/65/191 2/23/192
f 5/13/193 48/61/194 53/68/195 27/14/196
f 53/67/197 42/43/198 39/34/199 54/65/200
f 48/61/201 4/45/202 42/44/203 53/68/204
f 54/65/205 39/34/206 20/33/207 7/55/208
