# This file uses centimeters as units for non-parametric coordinates.

mtllib akamaru_tail.mtl
g default
v -0.004033 0.086855 -0.685266
v -0.001824 0.093517 -0.683274
v 0.004541 0.098752 -0.681707
v 0.014446 0.098340 -0.681813
v 0.017869 0.095400 -0.682629
v 0.019561 0.092371 -0.683467
v 0.018919 0.081885 -0.686399
v 0.014045 0.076593 -0.687944
v -0.001684 0.079268 -0.687436
v -0.003329 0.082291 -0.686589
v -0.171276 0.083224 0.029936
v -0.073665 0.164381 0.047672
v 0.090458 0.152350 0.048647
v 0.147040 0.104352 0.040590
v 0.174777 0.056498 0.032115
v 0.164177 -0.101604 0.002463
v 0.086005 -0.180597 -0.013855
v -0.161303 -0.139419 -0.011864
v -0.188039 -0.092881 -0.003786
v -0.201570 -0.022002 0.009260
v 0.138499 0.028885 0.039152
v -0.011563 -0.022690 0.027599
v 0.010360 -0.059922 0.021306
v 0.026903 0.042383 0.040329
v 0.067568 0.004713 0.034192
v 0.092830 -0.032537 0.027994
v 0.032989 -0.097506 0.015099
v -0.130910 -0.024372 0.025543
v -0.103727 0.061042 0.041764
v -0.098157 -0.121757 0.008363
v -0.118827 -0.081703 0.015264
v -0.071657 0.124806 0.053240
v 0.066727 0.109959 0.052754
v 0.113903 0.069150 0.046057
vt 0.007291 0.386854
vt 0.008371 0.387843
vt 0.078451 0.296527
vt 0.068163 0.288686
vt 0.005767 0.385963
vt 0.051161 0.279530
vt 0.003655 0.385327
vt 0.027558 0.271968
vt 0.002696 0.385253
vt 0.020137 0.270701
vt 0.001998 0.385277
vt 0.013550 0.270666
vt 0.147040 0.038440
vt 0.143208 0.033703
vt 0.033647 0.050209
vt 0.038861 0.064243
vt 0.147688 0.040514
vt 0.044376 0.078751
vt 0.150173 0.045194
vt 0.057451 0.110464
vt 0.150763 0.045879
vt 0.058031 0.114117
vt 0.008929 0.388585
vt 0.083333 0.299630
vt 0.077681 0.281017
vt 0.067308 0.274368
vt 0.055949 0.274345
vt 0.035457 0.264901
vt 0.027832 0.263470
vt 0.023019 0.262401
vt 0.026110 0.059116
vt 0.023737 0.074107
vt 0.028617 0.087846
vt 0.042551 0.105908
vt 0.040957 0.109468
vt 0.082409 0.284631
vt 0.016381 0.096280
vt 0.022263 0.092010
vt 0.017996 0.076353
vt 0.011284 0.085132
vt 0.068242 0.253803
vt 0.052108 0.255353
vt 0.030959 0.110624
vt 0.036477 0.256610
vt 0.020475 0.063511
vt 0.001506 0.386824
vt 0.003416 0.388456
vt 0.008689 0.389101
vn -0.800869 0.570231 -0.182879
vn -0.958511 0.129653 -0.253862
vn -0.987104 0.120577 -0.105299
vn -0.814428 0.576733 -0.063922
vn -0.252069 0.961003 -0.113734
vn -0.800869 0.570231 -0.182879
vn -0.814428 0.576733 -0.063922
vn -0.252631 0.967229 -0.025419
vn 0.261522 0.960136 -0.098721
vn -0.252069 0.961003 -0.113734
vn -0.252631 0.967229 -0.025419
vn 0.264414 0.964367 -0.009002
vn 0.738123 0.659526 -0.142131
vn 0.261522 0.960136 -0.098721
vn 0.264414 0.964367 -0.009002
vn 0.745342 0.665802 -0.034265
vn 0.973475 0.099394 -0.206078
vn 0.738123 0.659526 -0.142131
vn 0.745342 0.665802 -0.034265
vn 0.985800 0.116667 -0.120781
vn 0.911804 -0.305649 -0.274213
vn 0.973475 0.099394 -0.206078
vn 0.985800 0.116667 -0.120781
vn 0.937392 -0.323540 -0.128912
vn 0.107021 -0.924476 -0.365911
vn 0.911804 -0.305649 -0.274213
vn 0.937392 -0.323540 -0.128912
vn 0.142960 -0.957870 -0.249094
vn -0.279541 -0.891830 -0.355663
vn 0.107021 -0.924476 -0.365911
vn 0.142960 -0.957870 -0.249094
vn -0.319386 -0.902646 -0.288483
vn -0.911670 -0.262732 -0.315959
vn -0.279541 -0.891830 -0.355663
vn -0.319386 -0.902646 -0.288483
vn -0.943755 -0.287571 -0.163184
vn -0.958511 0.129653 -0.253862
vn -0.911670 -0.262732 -0.315959
vn -0.943755 -0.287571 -0.163184
vn -0.987104 0.120577 -0.105299
vn -0.987104 0.120577 -0.105299
vn -0.121403 -0.170456 0.977858
vn -0.098890 -0.134154 0.986014
vn -0.814428 0.576733 -0.063922
vn -0.814428 0.576733 -0.063922
vn -0.098890 -0.134154 0.986014
vn -0.071678 -0.042916 0.996504
vn -0.252631 0.967229 -0.025419
vn -0.252631 0.967229 -0.025419
vn -0.071678 -0.042916 0.996504
vn 0.021309 -0.041912 0.998894
vn 0.264414 0.964367 -0.009002
vn 0.264414 0.964367 -0.009002
vn 0.021309 -0.041912 0.998894
vn 0.076013 -0.101384 0.991939
vn 0.745342 0.665802 -0.034265
vn 0.745342 0.665802 -0.034265
vn 0.076013 -0.101384 0.991939
vn 0.154295 -0.193656 0.968860
vn 0.985800 0.116667 -0.120781
vn 0.985800 0.116667 -0.120781
vn 0.154295 -0.193656 0.968860
vn 0.090954 -0.232619 0.968306
vn 0.937392 -0.323540 -0.128912
vn 0.937392 -0.323540 -0.128912
vn 0.090954 -0.232619 0.968306
vn 0.014351 -0.319082 0.947619
vn 0.142960 -0.957870 -0.249094
vn 0.142960 -0.957870 -0.249094
vn 0.014351 -0.319082 0.947619
vn -0.047825 -0.363365 0.930418
vn -0.319386 -0.902646 -0.288483
vn -0.319386 -0.902646 -0.288483
vn -0.047825 -0.363365 0.930418
vn -0.108637 -0.209289 0.971801
vn -0.943755 -0.287571 -0.163184
vn -0.943755 -0.287571 -0.163184
vn -0.108637 -0.209289 0.971801
vn -0.121403 -0.170456 0.977858
vn -0.987104 0.120577 -0.105299
vn -0.015919 -0.180624 0.983423
vn -0.018061 -0.177136 0.984021
vn -0.015101 -0.175630 0.984340
vn -0.014535 -0.175833 0.984313
vn 0.090954 -0.232619 0.968306
vn -0.015101 -0.175630 0.984340
vn -0.018061 -0.177136 0.984021
vn 0.014351 -0.319082 0.947619
vn -0.015919 -0.180624 0.983423
vn -0.014535 -0.175833 0.984313
vn -0.098890 -0.134154 0.986014
vn -0.121403 -0.170456 0.977858
vn -0.047825 -0.363365 0.930418
vn 0.014351 -0.319082 0.947619
vn -0.018061 -0.177136 0.984021
vn -0.108637 -0.209289 0.971801
vn -0.108637 -0.209289 0.971801
vn -0.018061 -0.177136 0.984021
vn -0.015919 -0.180624 0.983423
vn -0.121403 -0.170456 0.977858
vn -0.071678 -0.042916 0.996504
vn -0.098890 -0.134154 0.986014
vn -0.014535 -0.175833 0.984313
vn 0.021309 -0.041912 0.998894
vn -0.014535 -0.175833 0.984313
vn -0.015101 -0.175630 0.984340
vn 0.076013 -0.101384 0.991939
vn 0.021309 -0.041912 0.998894
vn -0.015101 -0.175630 0.984340
vn 0.090954 -0.232619 0.968306
vn 0.154295 -0.193656 0.968860
vn 0.076013 -0.101384 0.991939
vn -0.958511 0.129653 -0.253862
vn -0.800869 0.570231 -0.182879
vn 0.738123 0.659526 -0.142131
vn -0.800869 0.570231 -0.182879
vn -0.252069 0.961003 -0.113734
vn 0.738123 0.659526 -0.142131
vn -0.252069 0.961003 -0.113734
vn 0.261522 0.960136 -0.098721
vn 0.738123 0.659526 -0.142131
vn 0.973475 0.099394 -0.206078
vn 0.911804 -0.305649 -0.274213
vn 0.738123 0.659526 -0.142131
vn 0.911804 -0.305649 -0.274213
vn 0.107021 -0.924476 -0.365911
vn 0.738123 0.659526 -0.142131
vn 0.107021 -0.924476 -0.365911
vn -0.279541 -0.891830 -0.355663
vn 0.738123 0.659526 -0.142131
vn -0.279541 -0.891830 -0.355663
vn -0.911670 -0.262732 -0.315959
vn 0.738123 0.659526 -0.142131
vn -0.911670 -0.262732 -0.315959
vn -0.958511 0.129653 -0.253862
vn 0.738123 0.659526 -0.142131
s off
g RED_TAIL
usemtl akamaru:Low
f 2/1/1 1/2/2 20/3/3 11/4/4
f 3/5/5 2/1/6 11/4/7 12/6/8
f 4/7/9 3/5/10 12/6/11 13/8/12
f 5/9/13 4/7/14 13/8/15 14/10/16
f 6/11/17 5/9/18 14/10/19 15/12/20
f 7/13/21 6/14/22 15/15/23 16/16/24
f 8/17/25 7/13/26 16/16/27 17/18/28
f 9/19/29 8/17/30 17/18/31 18/20/32
f 10/21/33 9/19/34 18/20/35 19/22/36
f 1/2/37 10/23/38 19/24/39 20/3/40
f 20/3/41 28/25/42 29/26/43 11/4/44
f 11/4/45 29/26/46 32/27/47 12/6/48
f 12/6/49 32/27/50 33/28/51 13/8/52
f 13/8/53 33/28/54 34/29/55 14/10/56
f 14/10/57 34/29/58 21/30/59 15/12/60
f 15/15/61 21/31/62 26/32/63 16/16/64
f 16/16/65 26/32/66 27/33/67 17/18/68
f 17/18/69 27/33/70 30/34/71 18/20/72
f 18/20/73 30/34/74 31/35/75 19/22/76
f 19/24/77 31/36/78 28/25/79 20/3/80
f 22/37/81 23/38/82 25/39/83 24/40/84
f 26/32/85 25/39/86 23/38/87 27/33/88
f 22/41/89 24/42/90 29/26/91 28/25/92
f 30/34/93 27/33/94 23/38/95 31/35/96
f 31/35/97 23/38/98 22/37/99 28/43/100
f 32/27/101 29/26/102 24/42/103 33/28/104
f 24/42/105 25/44/106 34/29/107 33/28/108
f 25/39/109 26/32/110 21/31/111 34/45/112
f 1/2/113 2/1/114 5/9/115
f 2/1/116 3/5/117 5/9/118
f 3/5/119 4/7/120 5/9/121
f 6/11/122 7/46/123 5/9/124
f 7/46/125 8/47/126 5/9/127
f 8/47/128 9/48/129 5/9/130
f 9/48/131 10/23/132 5/9/133
f 10/23/134 1/2/135 5/9/136
