# This file uses centimeters as units for non-parametric coordinates.

mtllib red_tail.mtl
g default
v 0.000000 -0.305240 0.007083
v 0.056680 -0.299375 0.006947
v 0.111182 -0.282005 0.006544
v 0.161412 -0.253798 0.005889
v 0.205438 -0.215837 0.005008
v 0.241570 -0.169582 0.003935
v 0.268418 -0.116810 0.002710
v 0.284951 -0.059549 0.001382
v 0.290534 0.000000 0.000000
v 0.284951 0.059549 -0.001382
v 0.268418 0.116810 -0.002710
v 0.241570 0.169582 -0.003935
v 0.205438 0.215838 -0.005008
v 0.161412 0.253798 -0.005889
v 0.111182 0.282005 -0.006544
v 0.056680 0.299375 -0.006947
v 0.000000 0.305240 -0.007083
v -0.056680 0.299375 -0.006947
v -0.111182 0.282005 -0.006544
v -0.161412 0.253798 -0.005889
v -0.205438 0.215838 -0.005008
v -0.241570 0.169582 -0.003935
v -0.268418 0.116810 -0.002710
v -0.284951 0.059549 -0.001382
v -0.290534 0.000000 0.000000
v -0.284951 -0.059549 0.001382
v -0.268418 -0.116810 0.002710
v -0.241570 -0.169582 0.003935
v -0.205438 -0.215837 0.005008
v -0.161412 -0.253798 0.005889
v -0.111182 -0.282005 0.006544
v -0.056680 -0.299375 0.006947
v 0.000000 0.237728 -1.676942
vt 0.249724 0.942222
vt 0.249724 0.752627
vt 0.286712 0.938578
vt 0.322279 0.927790
vt 0.355057 0.910269
vt 0.383788 0.886691
vt 0.407366 0.857960
vt 0.424886 0.825182
vt 0.435675 0.789616
vt 0.439318 0.752627
vt 0.435675 0.715639
vt 0.424886 0.680073
vt 0.407366 0.647294
vt 0.383788 0.618564
vt 0.355057 0.594985
vt 0.322279 0.577465
vt 0.286712 0.566676
vt 0.249724 0.563033
vt 0.212736 0.566676
vt 0.177170 0.577465
vt 0.144391 0.594985
vt 0.115660 0.618564
vt 0.092082 0.647294
vt 0.074562 0.680073
vt 0.063773 0.715639
vt 0.060130 0.752627
vt 0.063773 0.789616
vt 0.074562 0.825182
vt 0.092082 0.857960
vt 0.115660 0.886691
vt 0.144391 0.910269
vt 0.177170 0.927790
vt 0.284637 0.566676
vt 0.061698 0.715639
vt 0.210660 0.938578
vt 0.212736 0.938578
vt 0.247649 0.942222
vt 0.284637 0.938578
vt 0.320203 0.927790
vt 0.352982 0.910269
vt 0.381712 0.886691
vt 0.405291 0.857960
vt 0.422811 0.825182
vt 0.433599 0.789616
vt 0.437243 0.752627
vt 0.433599 0.715639
vt 0.422811 0.680073
vt 0.405291 0.647294
vt 0.381712 0.618564
vt 0.352982 0.594985
vt 0.320203 0.577465
vt 0.247649 0.563033
vt 0.210660 0.566676
vt 0.175094 0.577465
vt 0.142315 0.594985
vt 0.113585 0.618564
vt 0.090006 0.647294
vt 0.072486 0.680073
vt 0.058054 0.752627
vt 0.061698 0.789616
vt 0.072486 0.825182
vt 0.090006 0.857960
vt 0.113585 0.886691
vt 0.142315 0.910269
vt 0.175094 0.927790
vn 0.097304 -0.947236 -0.305412
vn 0.097304 -0.947236 -0.305412
vn 0.097304 -0.947236 -0.305412
vn 0.287697 -0.909589 -0.299796
vn 0.287697 -0.909589 -0.299796
vn 0.287697 -0.909589 -0.299796
vn 0.465904 -0.836308 -0.289003
vn 0.465904 -0.836308 -0.289003
vn 0.465904 -0.836308 -0.289003
vn 0.624975 -0.731171 -0.273489
vn 0.624975 -0.731171 -0.273489
vn 0.624975 -0.731171 -0.273489
vn 0.759298 -0.598998 -0.254299
vn 0.759298 -0.598998 -0.254299
vn 0.759298 -0.598998 -0.254299
vn 0.864737 -0.445319 -0.232210
vn 0.864737 -0.445319 -0.232210
vn 0.864737 -0.445319 -0.232210
vn 0.938397 -0.275799 -0.208199
vn 0.938397 -0.275799 -0.208199
vn 0.938397 -0.275799 -0.208199
vn 0.978396 -0.096000 -0.183099
vn 0.978396 -0.096000 -0.183099
vn 0.978396 -0.096000 -0.183099
vn 0.983497 0.088500 -0.157800
vn 0.983497 0.088500 -0.157800
vn 0.983497 0.088500 -0.157800
vn 0.953018 0.272105 -0.133102
vn 0.953018 0.272105 -0.133102
vn 0.953018 0.272105 -0.133102
vn 0.886909 0.448705 -0.109801
vn 0.886909 0.448705 -0.109801
vn 0.886909 0.448705 -0.109801
vn 0.785973 0.611879 -0.088597
vn 0.785973 0.611879 -0.088597
vn 0.785973 0.611879 -0.088597
vn 0.652190 0.754789 -0.070299
vn 0.652190 0.754789 -0.070299
vn 0.652190 0.754789 -0.070299
vn 0.489394 0.870289 -0.055599
vn 0.489394 0.870289 -0.055599
vn 0.489394 0.870289 -0.055599
vn 0.303605 0.951716 -0.045401
vn 0.303605 0.951716 -0.045401
vn 0.303605 0.951716 -0.045401
vn 0.102898 0.993879 -0.040199
vn 0.102898 0.993879 -0.040199
vn 0.102898 0.993879 -0.040199
vn -0.102898 0.993879 -0.040199
vn -0.102898 0.993879 -0.040199
vn -0.102898 0.993879 -0.040199
vn -0.303605 0.951716 -0.045401
vn -0.303605 0.951716 -0.045401
vn -0.303605 0.951716 -0.045401
vn -0.489394 0.870289 -0.055599
vn -0.489394 0.870289 -0.055599
vn -0.489394 0.870289 -0.055599
vn -0.652190 0.754789 -0.070299
vn -0.652190 0.754789 -0.070299
vn -0.652190 0.754789 -0.070299
vn -0.785973 0.611879 -0.088597
vn -0.785973 0.611879 -0.088597
vn -0.785973 0.611879 -0.088597
vn -0.886909 0.448705 -0.109801
vn -0.886909 0.448705 -0.109801
vn -0.886909 0.448705 -0.109801
vn -0.953018 0.272105 -0.133102
vn -0.953018 0.272105 -0.133102
vn -0.953018 0.272105 -0.133102
vn -0.983497 0.088500 -0.157800
vn -0.983497 0.088500 -0.157800
vn -0.983497 0.088500 -0.157800
vn -0.978396 -0.096000 -0.183099
vn -0.978396 -0.096000 -0.183099
vn -0.978396 -0.096000 -0.183099
vn -0.938397 -0.275799 -0.208199
vn -0.938397 -0.275799 -0.208199
vn -0.938397 -0.275799 -0.208199
vn -0.864737 -0.445319 -0.232210
vn -0.864737 -0.445319 -0.232210
vn -0.864737 -0.445319 -0.232210
vn -0.759298 -0.598998 -0.254299
vn -0.759298 -0.598998 -0.254299
vn -0.759298 -0.598998 -0.254299
vn -0.624975 -0.731171 -0.273489
vn -0.624975 -0.731171 -0.273489
vn -0.624975 -0.731171 -0.273489
vn -0.465904 -0.836308 -0.289003
vn -0.465904 -0.836308 -0.289003
vn -0.465904 -0.836308 -0.289003
vn 0.000000 0.023201 0.999731
vn 0.000000 0.023201 0.999731
vn 0.000000 0.023201 0.999731
vn -0.287697 -0.909589 -0.299796
vn -0.287697 -0.909589 -0.299796
vn -0.287697 -0.909589 -0.299796
vn -0.097304 -0.947236 -0.305412
vn -0.097304 -0.947236 -0.305412
vn -0.097304 -0.947236 -0.305412
vn 0.000000 0.023201 0.999731
vn 0.000000 0.023201 0.999731
vn 0.000000 0.023201 0.999731
vn 0.000000 0.023201 0.999731
vn 0.000000 0.023201 0.999731
vn 0.000000 0.023201 0.999731
vn 0.000000 0.023201 0.999731
vn 0.000000 0.023201 0.999731
vn 0.000000 0.023201 0.999731
vn 0.000000 0.023201 0.999731
vn 0.000000 0.023201 0.999731
vn 0.000000 0.023201 0.999731
vn 0.000000 0.023201 0.999731
vn 0.000000 0.023201 0.999731
vn 0.000000 0.023201 0.999731
vn 0.000000 0.023201 0.999731
vn 0.000000 0.023201 0.999731
vn 0.000000 0.023201 0.999731
vn 0.000000 0.023201 0.999731
vn 0.000000 0.023201 0.999731
vn 0.000000 0.023201 0.999731
vn 0.000000 0.023201 0.999731
vn 0.000000 0.023201 0.999731
vn 0.000000 0.023201 0.999731
vn 0.000000 0.023201 0.999731
vn 0.000000 0.023201 0.999731
vn 0.000000 0.023201 0.999731
vn 0.000000 0.023201 0.999731
vn 0.000000 0.023201 0.999731
vn 0.000000 0.023201 0.999731
vn 0.000000 0.023201 0.999731
vn 0.000000 0.023201 0.999731
vn 0.000000 0.023201 0.999731
vn 0.000000 0.023201 0.999731
vn 0.000000 0.023201 0.999731
vn 0.000000 0.023201 0.999731
vn 0.000000 0.023201 0.999731
vn 0.000000 0.023201 0.999731
vn 0.000000 0.023201 0.999731
vn 0.000000 0.023201 0.999731
vn 0.000000 0.023201 0.999731
vn 0.000000 0.023201 0.999731
vn 0.000000 0.023201 0.999731
vn 0.000000 0.023201 0.999731
vn 0.000000 0.023201 0.999731
vn 0.000000 0.023201 0.999731
vn 0.000000 0.023201 0.999731
vn 0.000000 0.023201 0.999731
vn 0.000000 0.023201 0.999731
vn 0.000000 0.023201 0.999731
vn 0.000000 0.023201 0.999731
vn 0.000000 0.023201 0.999731
vn 0.000000 0.023201 0.999731
vn 0.000000 0.023201 0.999731
vn 0.000000 0.023201 0.999731
vn 0.000000 0.023201 0.999731
vn 0.000000 0.023201 0.999731
vn 0.000000 0.023201 0.999731
vn 0.000000 0.023201 0.999731
vn 0.000000 0.023201 0.999731
vn 0.000000 0.023201 0.999731
vn 0.000000 0.023201 0.999731
vn 0.000000 0.023201 0.999731
vn 0.000000 0.023201 0.999731
vn 0.000000 0.023201 0.999731
vn 0.000000 0.023201 0.999731
vn 0.000000 0.023201 0.999731
vn 0.000000 0.023201 0.999731
vn 0.000000 0.023201 0.999731
vn 0.000000 0.023201 0.999731
vn 0.000000 0.023201 0.999731
vn 0.000000 0.023201 0.999731
vn 0.000000 0.023201 0.999731
vn 0.000000 0.023201 0.999731
vn 0.000000 0.023201 0.999731
vn 0.000000 0.023201 0.999731
vn 0.000000 0.023201 0.999731
vn 0.000000 0.023201 0.999731
vn 0.000000 0.023201 0.999731
vn 0.000000 0.023201 0.999731
vn 0.000000 0.023201 0.999731
vn 0.000000 0.023201 0.999731
vn 0.000000 0.023201 0.999731
vn 0.000000 0.023201 0.999731
vn 0.000000 0.023201 0.999731
vn 0.000000 0.023201 0.999731
vn 0.000000 0.023201 0.999731
s off
g red_tail:Mesh
usemtl lambert3SG
f 1/1/1 33/2/2 2/3/3
f 2/3/4 33/2/5 3/4/6
f 3/4/7 33/2/8 4/5/9
f 4/5/10 33/2/11 5/6/12
f 5/6/13 33/2/14 6/7/15
f 6/7/16 33/2/17 7/8/18
f 7/8/19 33/2/20 8/9/21
f 8/9/22 33/2/23 9/10/24
f 9/10/25 33/2/26 10/11/27
f 10/11/28 33/2/29 11/12/30
f 11/12/31 33/2/32 12/13/33
f 12/13/34 33/2/35 13/14/36
f 13/14/37 33/2/38 14/15/39
f 14/15/40 33/2/41 15/16/42
f 15/16/43 33/2/44 16/17/45
f 16/17/46 33/2/47 17/18/48
f 17/18/49 33/2/50 18/19/51
f 18/19/52 33/2/53 19/20/54
f 19/20/55 33/2/56 20/21/57
f 20/21/58 33/2/59 21/22/60
f 21/22/61 33/2/62 22/23/63
f 22/23/64 33/2/65 23/24/66
f 23/24/67 33/2/68 24/25/69
f 24/25/70 33/2/71 25/26/72
f 25/26/73 33/2/74 26/27/75
f 26/27/76 33/2/77 27/28/78
f 27/28/79 33/2/80 28/29/81
f 28/29/82 33/2/83 29/30/84
f 29/30/85 33/2/86 30/31/87
f 30/31/88 33/2/89 31/32/90
f 16/33/91 24/34/92 32/35/93
f 31/32/94 33/2/95 32/36/96
f 32/36/97 33/2/98 1/1/99
f 32/35/100 1/37/101 2/38/102
f 2/38/103 3/39/104 4/40/105
f 4/40/106 5/41/107 6/42/108
f 6/42/109 7/43/110 8/44/111
f 8/44/112 9/45/113 10/46/114
f 10/46/115 11/47/116 12/48/117
f 12/48/118 13/49/119 14/50/120
f 14/50/121 15/51/122 16/33/123
f 16/33/124 17/52/125 18/53/126
f 18/53/127 19/54/128 20/55/129
f 20/55/130 21/56/131 22/57/132
f 22/57/133 23/58/134 24/34/135
f 24/34/136 25/59/137 26/60/138
f 26/60/139 27/61/140 28/62/141
f 28/62/142 29/63/143 30/64/144
f 30/64/145 31/65/146 32/35/147
f 32/35/148 2/38/149 4/40/150
f 4/40/151 6/42/152 8/44/153
f 8/44/154 10/46/155 12/48/156
f 12/48/157 14/50/158 16/33/159
f 16/33/160 18/53/161 20/55/162
f 20/55/163 22/57/164 24/34/165
f 24/34/166 26/60/167 28/62/168
f 28/62/169 30/64/170 32/35/171
f 32/35/172 4/40/173 8/44/174
f 8/44/175 12/48/176 16/33/177
f 16/33/178 20/55/179 24/34/180
f 24/34/181 28/62/182 32/35/183
f 32/35/184 8/44/185 16/33/186
