# This file uses centimeters as units for non-parametric coordinates.

mtllib red_leg_r.mtl
g default
v -0.250000 -0.904087 0.222431
v -0.250000 0.000000 0.222431
v -0.250000 -0.904087 -0.222431
v -0.250000 0.000000 -0.222431
v 0.250000 -0.904087 0.222431
v 0.250000 0.000000 0.222431
v 0.250000 -0.904087 -0.222431
v 0.250000 0.000000 -0.222431
vt 0.313099 0.528398
vt 0.204706 0.636791
vt 0.204706 0.528398
vt 0.313099 0.636791
vt 0.204706 0.745184
vt 0.313099 0.745184
vt 0.204706 0.853577
vt 0.313099 0.853577
vt 0.204706 0.961970
vt 0.096313 0.853577
vt 0.096313 0.745184
vt 0.421492 0.745184
vt 0.313099 0.961970
vt 0.421492 0.853577
vn -1.000000 0.000000 0.000000
vn -1.000000 0.000000 0.000000
vn -1.000000 0.000000 0.000000
vn 0.000000 0.000000 -1.000000
vn 0.000000 0.000000 -1.000000
vn 0.000000 0.000000 -1.000000
vn 1.000000 0.000000 0.000000
vn 1.000000 0.000000 0.000000
vn 1.000000 0.000000 0.000000
vn 0.000000 0.000000 1.000000
vn 0.000000 0.000000 1.000000
vn 0.000000 0.000000 1.000000
vn 0.000000 -1.000000 0.000000
vn 0.000000 -1.000000 0.000000
vn 0.000000 -1.000000 0.000000
vn -0.000000 1.000000 -0.000000
vn -0.000000 1.000000 -0.000000
vn -0.000000 1.000000 -0.000000
vn -1.000000 0.000000 0.000000
vn -1.000000 0.000000 0.000000
vn -1.000000 0.000000 0.000000
vn 0.000000 0.000000 -1.000000
vn 0.000000 0.000000 -1.000000
vn 0.000000 0.000000 -1.000000
vn 1.000000 0.000000 0.000000
vn 1.000000 0.000000 0.000000
vn 1.000000 0.000000 0.000000
vn 0.000000 0.000000 1.000000
vn 0.000000 0.000000 1.000000
vn 0.000000 0.000000 1.000000
vn 0.000000 -1.000000 0.000000
vn 0.000000 -1.000000 0.000000
vn 0.000000 -1.000000 0.000000
vn -0.000000 1.000000 -0.000000
vn -0.000000 1.000000 -0.000000
vn -0.000000 1.000000 -0.000000
s off
g red_leg_r:Mesh
usemtl lambert3SG
f 2/1/1 3/2/2 1/3/3
f 4/4/4 7/5/5 3/2/6
f 8/6/7 5/7/8 7/5/9
f 6/8/10 1/9/11 5/7/12
f 7/5/13 1/10/14 3/11/15
f 4/12/16 6/8/17 8/6/18
f 2/1/19 4/4/20 3/2/21
f 4/4/22 8/6/23 7/5/24
f 8/6/25 6/8/26 5/7/27
f 6/8/28 2/13/29 1/9/30
f 7/5/31 5/7/32 1/10/33
f 4/12/34 2/14/35 6/8/36
