# This file uses centimeters as units for non-parametric coordinates.

mtllib red_body.mtl
g default
v -0.800000 -0.800000 0.750000
v -0.800000 0.800000 0.750000
v -0.800000 -0.800000 -0.750000
v -0.800000 0.800000 -0.750000
v 0.800000 -0.800000 0.750000
v 0.800000 0.800000 0.750000
v 0.800000 -0.800000 -0.750000
v 0.800000 0.800000 -0.750000
v -0.535624 -0.543646 0.859586
v -0.535624 1.056354 0.859586
v -0.535624 -0.543646 -0.640413
v -0.535624 1.056354 -0.640413
v 0.560697 -0.543646 0.859586
v 0.560697 1.056354 0.859586
v 0.560697 -0.543646 -0.640413
v 0.560697 1.056354 -0.640413
vt 0.349918 0.533420
vt 0.239651 0.643687
vt 0.239651 0.533420
vt 0.349918 0.643687
vt 0.239651 0.753954
vt 0.349918 0.753954
vt 0.239651 0.864222
vt 0.349918 0.864222
vt 0.239651 0.974489
vt 0.129383 0.864222
vt 0.129383 0.753954
vt 0.460185 0.753954
vt 0.349918 0.974489
vt 0.460185 0.864222
vt 0.238439 0.133140
vt 0.184354 0.076092
vt 0.239920 0.077573
vt 0.182873 0.131659
vt 0.128787 0.074611
vt 0.127306 0.130178
vt 0.073220 0.073130
vt 0.071739 0.128697
vt 0.017654 0.071649
vt 0.074701 0.017564
vt 0.130268 0.019045
vt 0.125825 0.185744
vt 0.016173 0.127216
vt 0.070258 0.184263
vn -1.000000 0.000000 0.000000
vn -1.000000 0.000000 0.000000
vn -1.000000 0.000000 0.000000
vn 0.000000 0.000000 -1.000000
vn 0.000000 0.000000 -1.000000
vn 0.000000 0.000000 -1.000000
vn 1.000000 0.000000 0.000000
vn 1.000000 0.000000 0.000000
vn 1.000000 0.000000 0.000000
vn 0.000000 0.000000 1.000000
vn 0.000000 0.000000 1.000000
vn 0.000000 0.000000 1.000000
vn 0.000000 -1.000000 0.000000
vn 0.000000 -1.000000 0.000000
vn 0.000000 -1.000000 0.000000
vn -0.000000 1.000000 -0.000000
vn -0.000000 1.000000 -0.000000
vn -0.000000 1.000000 -0.000000
vn -1.000000 0.000000 0.000000
vn -1.000000 0.000000 0.000000
vn -1.000000 0.000000 0.000000
vn 0.000000 0.000000 -1.000000
vn 0.000000 0.000000 -1.000000
vn 0.000000 0.000000 -1.000000
vn 1.000000 0.000000 0.000000
vn 1.000000 0.000000 0.000000
vn 1.000000 0.000000 0.000000
vn 0.000000 0.000000 1.000000
vn 0.000000 0.000000 1.000000
vn 0.000000 0.000000 1.000000
vn 0.000000 -1.000000 0.000000
vn 0.000000 -1.000000 0.000000
vn 0.000000 -1.000000 0.000000
vn -0.000000 1.000000 -0.000000
vn -0.000000 1.000000 -0.000000
vn -0.000000 1.000000 -0.000000
vn -1.000000 0.000000 0.000000
vn -1.000000 0.000000 0.000000
vn -1.000000 0.000000 0.000000
vn 0.000000 0.000000 -1.000000
vn 0.000000 0.000000 -1.000000
vn 0.000000 0.000000 -1.000000
vn 1.000000 0.000000 0.000000
vn 1.000000 0.000000 0.000000
vn 1.000000 0.000000 0.000000
vn 0.000000 0.000000 1.000000
vn 0.000000 0.000000 1.000000
vn 0.000000 0.000000 1.000000
vn 0.000000 -1.000000 0.000000
vn 0.000000 -1.000000 0.000000
vn 0.000000 -1.000000 0.000000
vn -0.000000 1.000000 -0.000000
vn -0.000000 1.000000 -0.000000
vn -0.000000 1.000000 -0.000000
vn -1.000000 0.000000 0.000000
vn -1.000000 0.000000 0.000000
vn -1.000000 0.000000 0.000000
vn 0.000000 0.000000 -1.000000
vn 0.000000 0.000000 -1.000000
vn 0.000000 0.000000 -1.000000
vn 1.000000 0.000000 0.000000
vn 1.000000 0.000000 0.000000
vn 1.000000 0.000000 0.000000
vn 0.000000 0.000000 1.000000
vn 0.000000 0.000000 1.000000
vn 0.000000 0.000000 1.000000
vn 0.000000 -1.000000 0.000000
vn 0.000000 -1.000000 0.000000
vn 0.000000 -1.000000 0.000000
vn -0.000000 1.000000 -0.000000
vn -0.000000 1.000000 -0.000000
vn -0.000000 1.000000 -0.000000
s off
g red_body:Mesh
usemtl lambert3SG
f 2/1/1 3/2/2 1/3/3
f 4/4/4 7/5/5 3/2/6
f 8/6/7 5/7/8 7/5/9
f 6/8/10 1/9/11 5/7/12
f 7/5/13 1/10/14 3/11/15
f 4/12/16 6/8/17 8/6/18
f 2/1/19 4/4/20 3/2/21
f 4/4/22 8/6/23 7/5/24
f 8/6/25 6/8/26 5/7/27
f 6/8/28 2/13/29 1/9/30
f 7/5/31 5/7/32 1/10/33
f 4/12/34 2/14/35 6/8/36
f 10/15/37 11/16/38 9/17/39
f 12/18/40 15/19/41 11/16/42
f 16/20/43 13/21/44 15/19/45
f 14/22/46 9/23/47 13/21/48
f 15/19/49 9/24/50 11/25/51
f 12/26/52 14/22/53 16/20/54
f 10/15/55 12/18/56 11/16/57
f 12/18/58 16/20/59 15/19/60
f 16/20/61 14/22/62 13/21/63
f 14/22/64 10/27/65 9/23/66
f 15/19/67 13/21/68 9/24/69
f 12/26/70 10/28/71 14/22/72
